<svg width="155" height="30" viewBox="0 0 155 30" fill="none" xmlns="http://www.w3.org/2000/svg">
<mask id="path-1-outside-1_391_96" maskUnits="userSpaceOnUse" x="-1" y="-1" width="157" height="32" fill="black">
<rect fill="white" x="-1" y="-1" width="157" height="32"/>
<path d="M1.456 23.32C1.09333 23.32 0.805333 23.256 0.592 23.128C0.4 23 0.261333 22.8293 0.176 22.616C0.112 22.3813 0.0800002 22.1147 0.0800002 21.816V2.328C0.0800002 2.05067 0.122667 1.816 0.208 1.624C0.293334 1.432 0.442667 1.28267 0.656 1.176C0.890667 1.048 1.21067 0.983999 1.616 0.983999C2.08533 0.983999 2.416 1.02667 2.608 1.112C2.8 1.19733 2.992 1.34667 3.184 1.56L15.216 18.584V2.328C15.216 2.05067 15.248 1.816 15.312 1.624C15.3973 1.432 15.5467 1.28267 15.76 1.176C15.9733 1.048 16.2827 0.983999 16.688 0.983999C17.072 0.983999 17.36 1.048 17.552 1.176C17.7653 1.304 17.904 1.48533 17.968 1.72C18.0533 1.93333 18.096 2.17867 18.096 2.456V21.848C18.096 22.1253 18.0427 22.3813 17.936 22.616C17.8507 22.8293 17.6907 23 17.456 23.128C17.2427 23.256 16.9333 23.32 16.528 23.32C16.1867 23.32 15.8987 23.2773 15.664 23.192C15.4507 23.1067 15.248 22.9467 15.056 22.712L2.96 5.816V21.848C2.96 22.1253 2.91733 22.3813 2.832 22.616C2.74667 22.8293 2.59733 23 2.384 23.128C2.17067 23.256 1.86133 23.32 1.456 23.32ZM29.6803 23.512C28.6349 23.512 27.6323 23.3093 26.6723 22.904C25.7336 22.4987 24.8909 21.944 24.1443 21.24C23.3976 20.5147 22.8109 19.672 22.3843 18.712C21.9576 17.752 21.7443 16.7067 21.7443 15.576C21.7443 14.4667 21.9469 13.4427 22.3523 12.504C22.7576 11.544 23.3229 10.7013 24.0483 9.976C24.7736 9.25067 25.6056 8.68533 26.5443 8.28C27.5043 7.85333 28.5283 7.64 29.6163 7.64C31.0883 7.64 32.4109 7.992 33.5843 8.696C34.7789 9.37867 35.7283 10.3173 36.4323 11.512C37.1363 12.7067 37.4883 14.0507 37.4883 15.544C37.4883 16.7173 37.2749 17.7947 36.8483 18.776C36.4216 19.736 35.8456 20.568 35.1203 21.272C34.3949 21.976 33.5629 22.5307 32.6243 22.936C31.6856 23.32 30.7043 23.512 29.6803 23.512ZM29.6163 20.728C30.5123 20.728 31.3443 20.504 32.1123 20.056C32.8803 19.608 33.4989 18.9893 33.9683 18.2C34.4376 17.4107 34.6723 16.5147 34.6723 15.512C34.6723 14.5093 34.4483 13.624 34.0003 12.856C33.5736 12.088 32.9763 11.4907 32.2083 11.064C31.4403 10.6373 30.5656 10.424 29.5843 10.424C28.6456 10.424 27.7923 10.648 27.0243 11.096C26.2776 11.544 25.6696 12.152 25.2003 12.92C24.7523 13.688 24.5283 14.5627 24.5283 15.544C24.5283 16.568 24.7629 17.4747 25.2323 18.264C25.7016 19.032 26.3203 19.64 27.0883 20.088C27.8776 20.5147 28.7203 20.728 29.6163 20.728ZM46.1698 23.384C45.8071 23.384 45.5084 23.3307 45.2738 23.224C45.0604 23.1173 44.8791 22.9253 44.7298 22.648L38.8098 9.752C38.5751 9.24 38.5218 8.856 38.6497 8.6C38.7778 8.32267 39.0764 8.06667 39.5458 7.832C39.9724 7.61867 40.3351 7.55467 40.6338 7.64C40.9324 7.704 41.1884 7.98133 41.4018 8.472L46.1698 19.832L50.8418 8.792C51.0764 8.30133 51.3324 7.94933 51.6098 7.736C51.8871 7.52267 52.3244 7.56533 52.9218 7.864C53.4978 8.14133 53.7858 8.46133 53.7858 8.824C53.7858 9.16533 53.6898 9.53867 53.4978 9.944L47.6098 22.616C47.5031 22.872 47.3324 23.064 47.0978 23.192C46.8631 23.32 46.5538 23.384 46.1698 23.384ZM68.5438 23.288C68.0744 23.288 67.7331 23.192 67.5198 23C67.3278 22.808 67.2104 22.5093 67.1678 22.104L67.2958 20.504C67.0824 20.8453 66.7518 21.24 66.3038 21.688C65.8558 22.1147 65.2691 22.4987 64.5438 22.84C63.8184 23.16 62.9331 23.32 61.8878 23.32C60.8638 23.32 59.9038 23.1173 59.0078 22.712C58.1331 22.3067 57.3544 21.7413 56.6718 21.016C56.0104 20.2907 55.4878 19.4587 55.1038 18.52C54.7411 17.5813 54.5598 16.5787 54.5598 15.512C54.5598 14.4667 54.7411 13.4853 55.1038 12.568C55.4878 11.6293 56.0211 10.808 56.7038 10.104C57.3864 9.4 58.1651 8.84533 59.0398 8.44C59.9358 8.03467 60.8851 7.832 61.8878 7.832C62.8264 7.832 63.6264 7.96 64.2878 8.216C64.9491 8.45067 65.5144 8.77067 65.9838 9.176C66.4744 9.56 66.9011 9.99733 67.2638 10.488L67.1998 9.144C67.1784 8.67467 67.2744 8.344 67.4878 8.152C67.7224 7.93867 68.0851 7.832 68.5758 7.832C68.9811 7.832 69.2691 7.896 69.4398 8.024C69.6318 8.152 69.7598 8.33333 69.8238 8.568C69.8878 8.80267 69.9198 9.09067 69.9198 9.432V21.784C69.9198 22.0827 69.8878 22.3493 69.8238 22.584C69.7598 22.8187 69.6318 22.9893 69.4398 23.096C69.2478 23.224 68.9491 23.288 68.5438 23.288ZM62.3678 20.632C63.2211 20.632 63.9998 20.408 64.7038 19.96C65.4291 19.512 65.9944 18.9147 66.3998 18.168C66.8264 17.4 67.0398 16.5253 67.0398 15.544C67.0398 14.5413 66.8158 13.6667 66.3678 12.92C65.9411 12.152 65.3651 11.5547 64.6398 11.128C63.9358 10.68 63.1571 10.456 62.3038 10.456C61.3011 10.456 60.4264 10.6907 59.6798 11.16C58.9544 11.608 58.3784 12.216 57.9518 12.984C57.5251 13.752 57.3118 14.6267 57.3118 15.608C57.3118 16.568 57.5251 17.432 57.9518 18.2C58.3784 18.9467 58.9651 19.544 59.7118 19.992C60.4798 20.4187 61.3651 20.632 62.3678 20.632ZM83.0118 23.32C82.6278 23.32 82.3291 23.2453 82.1158 23.096C81.9238 22.968 81.7958 22.776 81.7318 22.52C81.6678 22.2427 81.6358 21.944 81.6358 21.624V2.616C81.6358 2.296 81.6678 2.01867 81.7318 1.784C81.8171 1.528 81.9558 1.336 82.1478 1.208C82.3611 1.05867 82.6598 0.983999 83.0438 0.983999H91.9718C93.1664 0.983999 94.2118 1.25067 95.1078 1.784C96.0251 2.31733 96.7398 3.04267 97.2518 3.96C97.7638 4.87733 98.0091 5.88 97.9878 6.968C98.0091 7.52267 97.9451 8.06667 97.7958 8.6C97.6464 9.13333 97.4224 9.63467 97.1238 10.104C96.8464 10.552 96.4944 10.9253 96.0678 11.224C96.6438 11.5867 97.1344 12.056 97.5398 12.632C97.9451 13.208 98.2544 13.848 98.4678 14.552C98.6811 15.256 98.7878 15.992 98.7878 16.76C98.7664 17.6773 98.5958 18.5413 98.2758 19.352C97.9558 20.1413 97.4971 20.8347 96.8998 21.432C96.3024 22.0293 95.6091 22.4987 94.8198 22.84C94.0304 23.16 93.1878 23.32 92.2918 23.32H83.0118ZM84.5158 20.568H91.9718C92.8038 20.568 93.5184 20.408 94.1158 20.088C94.7131 19.768 95.1718 19.2987 95.4918 18.68C95.8118 18.0613 95.9718 17.304 95.9718 16.408C95.9718 15.64 95.8651 15.0213 95.6518 14.552C95.4384 14.0827 95.1504 13.7307 94.7878 13.496C94.4251 13.24 94.0304 13.0587 93.6038 12.952C93.1984 12.8453 92.7931 12.792 92.3878 12.792C92.0038 12.7707 91.6518 12.76 91.3318 12.76H89.3798C88.9531 12.76 88.6438 12.6533 88.4518 12.44C88.2598 12.2267 88.1638 11.8853 88.1638 11.416C88.1638 10.968 88.2598 10.648 88.4518 10.456C88.6651 10.264 88.9851 10.168 89.4118 10.168H91.3638C91.7051 10.168 92.0891 10.1573 92.5158 10.136C92.9424 10.1147 93.3584 10.0293 93.7638 9.88C94.1904 9.73067 94.5318 9.45333 94.7878 9.048C95.0651 8.62133 95.2038 8.024 95.2038 7.256C95.2038 6.06133 94.8838 5.18667 94.2438 4.632C93.6038 4.056 92.5478 3.768 91.0758 3.768H84.5158V20.568ZM103.674 23.32C103.269 23.32 102.959 23.256 102.746 23.128C102.554 23.0213 102.426 22.8613 102.362 22.648C102.319 22.4133 102.298 22.1467 102.298 21.848V9.24C102.298 8.92 102.33 8.65333 102.394 8.44C102.458 8.22667 102.586 8.07733 102.778 7.992C102.97 7.88533 103.279 7.832 103.706 7.832C104.09 7.832 104.378 7.88533 104.57 7.992C104.783 8.07733 104.922 8.216 104.986 8.408C105.071 8.57867 105.114 8.78133 105.114 9.016L104.986 9.976C105.135 9.69867 105.306 9.42133 105.498 9.144C105.711 8.86667 105.967 8.62133 106.266 8.408C106.586 8.17333 106.959 7.98133 107.386 7.832C107.834 7.68267 108.378 7.608 109.018 7.608C109.338 7.608 109.637 7.64 109.914 7.704C110.213 7.74667 110.49 7.82133 110.746 7.928C111.023 8.03467 111.258 8.16267 111.45 8.312C111.642 8.44 111.791 8.58933 111.898 8.76C112.026 8.90933 112.09 9.09067 112.09 9.304C112.09 9.77333 111.941 10.1787 111.642 10.52C111.343 10.84 111.034 11 110.714 11C110.437 11 110.234 10.968 110.106 10.904C109.978 10.8187 109.85 10.7333 109.722 10.648C109.615 10.5627 109.455 10.488 109.242 10.424C109.029 10.3387 108.687 10.296 108.218 10.296C107.898 10.296 107.557 10.36 107.194 10.488C106.853 10.616 106.522 10.808 106.202 11.064C105.882 11.2987 105.615 11.608 105.402 11.992C105.21 12.376 105.114 12.824 105.114 13.336V21.912C105.114 22.2107 105.082 22.4667 105.018 22.68C104.954 22.8933 104.815 23.0533 104.602 23.16C104.41 23.2667 104.101 23.32 103.674 23.32ZM116.834 23.32C116.429 23.32 116.119 23.256 115.906 23.128C115.714 23.0213 115.586 22.8613 115.522 22.648C115.458 22.4347 115.426 22.1787 115.426 21.88V9.24C115.426 8.94133 115.458 8.68533 115.522 8.472C115.586 8.25867 115.714 8.09867 115.906 7.992C116.119 7.88533 116.439 7.832 116.866 7.832C117.271 7.832 117.57 7.896 117.762 8.024C117.954 8.13067 118.082 8.29067 118.146 8.504C118.21 8.71733 118.242 8.984 118.242 9.304V21.912C118.242 22.2107 118.21 22.4667 118.146 22.68C118.082 22.8933 117.943 23.0533 117.73 23.16C117.538 23.2667 117.239 23.32 116.834 23.32ZM116.834 3.992C116.365 3.992 116.013 3.928 115.778 3.8C115.543 3.65067 115.383 3.448 115.298 3.192C115.234 2.936 115.202 2.63733 115.202 2.296C115.202 1.95467 115.245 1.66667 115.33 1.432C115.415 1.176 115.575 0.994665 115.81 0.887999C116.045 0.759999 116.397 0.695999 116.866 0.695999C117.314 0.695999 117.655 0.759999 117.89 0.887999C118.125 1.016 118.274 1.208 118.338 1.464C118.423 1.72 118.466 2.01867 118.466 2.36C118.466 2.70133 118.423 3 118.338 3.256C118.274 3.49067 118.125 3.672 117.89 3.8C117.655 3.928 117.303 3.992 116.834 3.992ZM123.83 23.288C123.425 23.288 123.116 23.224 122.902 23.096C122.71 22.9893 122.582 22.8293 122.518 22.616C122.476 22.4027 122.454 22.1467 122.454 21.848V9.144C122.454 8.86667 122.486 8.632 122.55 8.44C122.614 8.248 122.742 8.09867 122.934 7.992C123.148 7.88533 123.457 7.832 123.862 7.832C124.182 7.832 124.428 7.87467 124.598 7.96C124.79 8.024 124.918 8.12 124.982 8.248C125.068 8.376 125.121 8.51467 125.142 8.664C125.164 8.81333 125.174 8.952 125.174 9.08L125.11 10.552C125.324 10.1893 125.59 9.848 125.91 9.528C126.23 9.18667 126.604 8.888 127.03 8.632C127.457 8.35467 127.916 8.14133 128.406 7.992C128.918 7.84267 129.462 7.768 130.038 7.768C130.977 7.768 131.841 7.93867 132.63 8.28C133.42 8.6 134.092 9.08 134.646 9.72C135.222 10.3387 135.66 11.0853 135.958 11.96C136.278 12.8347 136.438 13.8267 136.438 14.936V21.88C136.438 22.1787 136.406 22.4347 136.342 22.648C136.3 22.8613 136.172 23.0213 135.958 23.128C135.766 23.2347 135.468 23.288 135.062 23.288C134.636 23.288 134.316 23.224 134.102 23.096C133.91 22.9893 133.782 22.8293 133.718 22.616C133.654 22.4027 133.622 22.1467 133.622 21.848V14.904C133.622 14.008 133.473 13.2293 133.174 12.568C132.876 11.9067 132.428 11.3947 131.83 11.032C131.233 10.648 130.476 10.456 129.558 10.456C128.684 10.456 127.916 10.648 127.254 11.032C126.614 11.3947 126.113 11.9067 125.75 12.568C125.409 13.2293 125.238 14.008 125.238 14.904V21.88C125.238 22.1787 125.206 22.4347 125.142 22.648C125.078 22.8613 124.94 23.0213 124.726 23.128C124.534 23.2347 124.236 23.288 123.83 23.288ZM146.763 29.592C146.016 29.592 145.301 29.5067 144.619 29.336C143.936 29.1653 143.339 28.9413 142.827 28.664C142.315 28.3867 141.909 28.088 141.611 27.768C141.312 27.448 141.163 27.1493 141.163 26.872C141.163 26.6587 141.195 26.4773 141.259 26.328C141.323 26.2 141.419 26.0613 141.547 25.912C141.76 25.6987 141.931 25.5493 142.059 25.464C142.187 25.3787 142.357 25.336 142.571 25.336C142.784 25.336 142.997 25.4213 143.211 25.592C143.424 25.784 143.68 25.9867 143.979 26.2C144.299 26.4347 144.683 26.6373 145.131 26.808C145.6 27 146.176 27.096 146.859 27.096C147.563 27.096 148.192 26.9893 148.747 26.776C149.301 26.5627 149.781 26.2427 150.187 25.816C150.592 25.3893 150.901 24.8667 151.115 24.248C151.328 23.6507 151.435 22.968 151.435 22.2L151.371 8.888C151.392 8.48267 151.509 8.19467 151.723 8.024C151.957 7.85333 152.32 7.768 152.811 7.768C153.216 7.768 153.504 7.832 153.675 7.96C153.867 8.06667 153.984 8.22667 154.027 8.44C154.091 8.632 154.123 8.87733 154.123 9.176V22.424C154.123 23.5547 153.941 24.5573 153.579 25.432C153.216 26.328 152.704 27.0853 152.043 27.704C151.381 28.3227 150.603 28.792 149.707 29.112C148.811 29.432 147.829 29.592 146.763 29.592ZM146.667 22.968C145.643 22.968 144.693 22.7867 143.819 22.424C142.965 22.04 142.208 21.5067 141.547 20.824C140.907 20.1413 140.405 19.3413 140.043 18.424C139.701 17.5067 139.531 16.504 139.531 15.416C139.531 14.328 139.701 13.3253 140.043 12.408C140.405 11.4907 140.907 10.6907 141.547 10.008C142.187 9.32533 142.933 8.80267 143.787 8.44C144.661 8.056 145.611 7.864 146.635 7.864C147.573 7.864 148.427 8.04533 149.195 8.408C149.963 8.77067 150.613 9.29333 151.147 9.976C151.701 10.6373 152.117 11.4267 152.395 12.344C152.672 13.2613 152.811 14.2853 152.811 15.416C152.811 16.952 152.565 18.2853 152.075 19.416C151.584 20.5467 150.88 21.4213 149.963 22.04C149.045 22.6587 147.947 22.968 146.667 22.968ZM146.827 20.344C147.68 20.344 148.448 20.1307 149.131 19.704C149.813 19.2773 150.357 18.6907 150.763 17.944C151.168 17.1973 151.371 16.3333 151.371 15.352C151.371 14.392 151.168 13.5493 150.763 12.824C150.357 12.0773 149.803 11.5013 149.099 11.096C148.416 10.6907 147.637 10.488 146.763 10.488C145.888 10.488 145.109 10.6907 144.427 11.096C143.744 11.5013 143.211 12.0773 142.827 12.824C142.464 13.5493 142.283 14.4027 142.283 15.384C142.283 16.3653 142.475 17.2293 142.859 17.976C143.243 18.7013 143.776 19.2773 144.459 19.704C145.141 20.1307 145.931 20.344 146.827 20.344Z"/>
</mask>
<g filter="url(#filter0_i_391_96)">
<path d="M1.456 23.32C1.09333 23.32 0.805333 23.256 0.592 23.128C0.4 23 0.261333 22.8293 0.176 22.616C0.112 22.3813 0.0800002 22.1147 0.0800002 21.816V2.328C0.0800002 2.05067 0.122667 1.816 0.208 1.624C0.293334 1.432 0.442667 1.28267 0.656 1.176C0.890667 1.048 1.21067 0.983999 1.616 0.983999C2.08533 0.983999 2.416 1.02667 2.608 1.112C2.8 1.19733 2.992 1.34667 3.184 1.56L15.216 18.584V2.328C15.216 2.05067 15.248 1.816 15.312 1.624C15.3973 1.432 15.5467 1.28267 15.76 1.176C15.9733 1.048 16.2827 0.983999 16.688 0.983999C17.072 0.983999 17.36 1.048 17.552 1.176C17.7653 1.304 17.904 1.48533 17.968 1.72C18.0533 1.93333 18.096 2.17867 18.096 2.456V21.848C18.096 22.1253 18.0427 22.3813 17.936 22.616C17.8507 22.8293 17.6907 23 17.456 23.128C17.2427 23.256 16.9333 23.32 16.528 23.32C16.1867 23.32 15.8987 23.2773 15.664 23.192C15.4507 23.1067 15.248 22.9467 15.056 22.712L2.96 5.816V21.848C2.96 22.1253 2.91733 22.3813 2.832 22.616C2.74667 22.8293 2.59733 23 2.384 23.128C2.17067 23.256 1.86133 23.32 1.456 23.32ZM29.6803 23.512C28.6349 23.512 27.6323 23.3093 26.6723 22.904C25.7336 22.4987 24.8909 21.944 24.1443 21.24C23.3976 20.5147 22.8109 19.672 22.3843 18.712C21.9576 17.752 21.7443 16.7067 21.7443 15.576C21.7443 14.4667 21.9469 13.4427 22.3523 12.504C22.7576 11.544 23.3229 10.7013 24.0483 9.976C24.7736 9.25067 25.6056 8.68533 26.5443 8.28C27.5043 7.85333 28.5283 7.64 29.6163 7.64C31.0883 7.64 32.4109 7.992 33.5843 8.696C34.7789 9.37867 35.7283 10.3173 36.4323 11.512C37.1363 12.7067 37.4883 14.0507 37.4883 15.544C37.4883 16.7173 37.2749 17.7947 36.8483 18.776C36.4216 19.736 35.8456 20.568 35.1203 21.272C34.3949 21.976 33.5629 22.5307 32.6243 22.936C31.6856 23.32 30.7043 23.512 29.6803 23.512ZM29.6163 20.728C30.5123 20.728 31.3443 20.504 32.1123 20.056C32.8803 19.608 33.4989 18.9893 33.9683 18.2C34.4376 17.4107 34.6723 16.5147 34.6723 15.512C34.6723 14.5093 34.4483 13.624 34.0003 12.856C33.5736 12.088 32.9763 11.4907 32.2083 11.064C31.4403 10.6373 30.5656 10.424 29.5843 10.424C28.6456 10.424 27.7923 10.648 27.0243 11.096C26.2776 11.544 25.6696 12.152 25.2003 12.92C24.7523 13.688 24.5283 14.5627 24.5283 15.544C24.5283 16.568 24.7629 17.4747 25.2323 18.264C25.7016 19.032 26.3203 19.64 27.0883 20.088C27.8776 20.5147 28.7203 20.728 29.6163 20.728ZM46.1698 23.384C45.8071 23.384 45.5084 23.3307 45.2738 23.224C45.0604 23.1173 44.8791 22.9253 44.7298 22.648L38.8098 9.752C38.5751 9.24 38.5218 8.856 38.6497 8.6C38.7778 8.32267 39.0764 8.06667 39.5458 7.832C39.9724 7.61867 40.3351 7.55467 40.6338 7.64C40.9324 7.704 41.1884 7.98133 41.4018 8.472L46.1698 19.832L50.8418 8.792C51.0764 8.30133 51.3324 7.94933 51.6098 7.736C51.8871 7.52267 52.3244 7.56533 52.9218 7.864C53.4978 8.14133 53.7858 8.46133 53.7858 8.824C53.7858 9.16533 53.6898 9.53867 53.4978 9.944L47.6098 22.616C47.5031 22.872 47.3324 23.064 47.0978 23.192C46.8631 23.32 46.5538 23.384 46.1698 23.384ZM68.5438 23.288C68.0744 23.288 67.7331 23.192 67.5198 23C67.3278 22.808 67.2104 22.5093 67.1678 22.104L67.2958 20.504C67.0824 20.8453 66.7518 21.24 66.3038 21.688C65.8558 22.1147 65.2691 22.4987 64.5438 22.84C63.8184 23.16 62.9331 23.32 61.8878 23.32C60.8638 23.32 59.9038 23.1173 59.0078 22.712C58.1331 22.3067 57.3544 21.7413 56.6718 21.016C56.0104 20.2907 55.4878 19.4587 55.1038 18.52C54.7411 17.5813 54.5598 16.5787 54.5598 15.512C54.5598 14.4667 54.7411 13.4853 55.1038 12.568C55.4878 11.6293 56.0211 10.808 56.7038 10.104C57.3864 9.4 58.1651 8.84533 59.0398 8.44C59.9358 8.03467 60.8851 7.832 61.8878 7.832C62.8264 7.832 63.6264 7.96 64.2878 8.216C64.9491 8.45067 65.5144 8.77067 65.9838 9.176C66.4744 9.56 66.9011 9.99733 67.2638 10.488L67.1998 9.144C67.1784 8.67467 67.2744 8.344 67.4878 8.152C67.7224 7.93867 68.0851 7.832 68.5758 7.832C68.9811 7.832 69.2691 7.896 69.4398 8.024C69.6318 8.152 69.7598 8.33333 69.8238 8.568C69.8878 8.80267 69.9198 9.09067 69.9198 9.432V21.784C69.9198 22.0827 69.8878 22.3493 69.8238 22.584C69.7598 22.8187 69.6318 22.9893 69.4398 23.096C69.2478 23.224 68.9491 23.288 68.5438 23.288ZM62.3678 20.632C63.2211 20.632 63.9998 20.408 64.7038 19.96C65.4291 19.512 65.9944 18.9147 66.3998 18.168C66.8264 17.4 67.0398 16.5253 67.0398 15.544C67.0398 14.5413 66.8158 13.6667 66.3678 12.92C65.9411 12.152 65.3651 11.5547 64.6398 11.128C63.9358 10.68 63.1571 10.456 62.3038 10.456C61.3011 10.456 60.4264 10.6907 59.6798 11.16C58.9544 11.608 58.3784 12.216 57.9518 12.984C57.5251 13.752 57.3118 14.6267 57.3118 15.608C57.3118 16.568 57.5251 17.432 57.9518 18.2C58.3784 18.9467 58.9651 19.544 59.7118 19.992C60.4798 20.4187 61.3651 20.632 62.3678 20.632ZM83.0118 23.32C82.6278 23.32 82.3291 23.2453 82.1158 23.096C81.9238 22.968 81.7958 22.776 81.7318 22.52C81.6678 22.2427 81.6358 21.944 81.6358 21.624V2.616C81.6358 2.296 81.6678 2.01867 81.7318 1.784C81.8171 1.528 81.9558 1.336 82.1478 1.208C82.3611 1.05867 82.6598 0.983999 83.0438 0.983999H91.9718C93.1664 0.983999 94.2118 1.25067 95.1078 1.784C96.0251 2.31733 96.7398 3.04267 97.2518 3.96C97.7638 4.87733 98.0091 5.88 97.9878 6.968C98.0091 7.52267 97.9451 8.06667 97.7958 8.6C97.6464 9.13333 97.4224 9.63467 97.1238 10.104C96.8464 10.552 96.4944 10.9253 96.0678 11.224C96.6438 11.5867 97.1344 12.056 97.5398 12.632C97.9451 13.208 98.2544 13.848 98.4678 14.552C98.6811 15.256 98.7878 15.992 98.7878 16.76C98.7664 17.6773 98.5958 18.5413 98.2758 19.352C97.9558 20.1413 97.4971 20.8347 96.8998 21.432C96.3024 22.0293 95.6091 22.4987 94.8198 22.84C94.0304 23.16 93.1878 23.32 92.2918 23.32H83.0118ZM84.5158 20.568H91.9718C92.8038 20.568 93.5184 20.408 94.1158 20.088C94.7131 19.768 95.1718 19.2987 95.4918 18.68C95.8118 18.0613 95.9718 17.304 95.9718 16.408C95.9718 15.64 95.8651 15.0213 95.6518 14.552C95.4384 14.0827 95.1504 13.7307 94.7878 13.496C94.4251 13.24 94.0304 13.0587 93.6038 12.952C93.1984 12.8453 92.7931 12.792 92.3878 12.792C92.0038 12.7707 91.6518 12.76 91.3318 12.76H89.3798C88.9531 12.76 88.6438 12.6533 88.4518 12.44C88.2598 12.2267 88.1638 11.8853 88.1638 11.416C88.1638 10.968 88.2598 10.648 88.4518 10.456C88.6651 10.264 88.9851 10.168 89.4118 10.168H91.3638C91.7051 10.168 92.0891 10.1573 92.5158 10.136C92.9424 10.1147 93.3584 10.0293 93.7638 9.88C94.1904 9.73067 94.5318 9.45333 94.7878 9.048C95.0651 8.62133 95.2038 8.024 95.2038 7.256C95.2038 6.06133 94.8838 5.18667 94.2438 4.632C93.6038 4.056 92.5478 3.768 91.0758 3.768H84.5158V20.568ZM103.674 23.32C103.269 23.32 102.959 23.256 102.746 23.128C102.554 23.0213 102.426 22.8613 102.362 22.648C102.319 22.4133 102.298 22.1467 102.298 21.848V9.24C102.298 8.92 102.33 8.65333 102.394 8.44C102.458 8.22667 102.586 8.07733 102.778 7.992C102.97 7.88533 103.279 7.832 103.706 7.832C104.09 7.832 104.378 7.88533 104.57 7.992C104.783 8.07733 104.922 8.216 104.986 8.408C105.071 8.57867 105.114 8.78133 105.114 9.016L104.986 9.976C105.135 9.69867 105.306 9.42133 105.498 9.144C105.711 8.86667 105.967 8.62133 106.266 8.408C106.586 8.17333 106.959 7.98133 107.386 7.832C107.834 7.68267 108.378 7.608 109.018 7.608C109.338 7.608 109.637 7.64 109.914 7.704C110.213 7.74667 110.49 7.82133 110.746 7.928C111.023 8.03467 111.258 8.16267 111.45 8.312C111.642 8.44 111.791 8.58933 111.898 8.76C112.026 8.90933 112.09 9.09067 112.09 9.304C112.09 9.77333 111.941 10.1787 111.642 10.52C111.343 10.84 111.034 11 110.714 11C110.437 11 110.234 10.968 110.106 10.904C109.978 10.8187 109.85 10.7333 109.722 10.648C109.615 10.5627 109.455 10.488 109.242 10.424C109.029 10.3387 108.687 10.296 108.218 10.296C107.898 10.296 107.557 10.36 107.194 10.488C106.853 10.616 106.522 10.808 106.202 11.064C105.882 11.2987 105.615 11.608 105.402 11.992C105.21 12.376 105.114 12.824 105.114 13.336V21.912C105.114 22.2107 105.082 22.4667 105.018 22.68C104.954 22.8933 104.815 23.0533 104.602 23.16C104.41 23.2667 104.101 23.32 103.674 23.32ZM116.834 23.32C116.429 23.32 116.119 23.256 115.906 23.128C115.714 23.0213 115.586 22.8613 115.522 22.648C115.458 22.4347 115.426 22.1787 115.426 21.88V9.24C115.426 8.94133 115.458 8.68533 115.522 8.472C115.586 8.25867 115.714 8.09867 115.906 7.992C116.119 7.88533 116.439 7.832 116.866 7.832C117.271 7.832 117.57 7.896 117.762 8.024C117.954 8.13067 118.082 8.29067 118.146 8.504C118.21 8.71733 118.242 8.984 118.242 9.304V21.912C118.242 22.2107 118.21 22.4667 118.146 22.68C118.082 22.8933 117.943 23.0533 117.73 23.16C117.538 23.2667 117.239 23.32 116.834 23.32ZM116.834 3.992C116.365 3.992 116.013 3.928 115.778 3.8C115.543 3.65067 115.383 3.448 115.298 3.192C115.234 2.936 115.202 2.63733 115.202 2.296C115.202 1.95467 115.245 1.66667 115.33 1.432C115.415 1.176 115.575 0.994665 115.81 0.887999C116.045 0.759999 116.397 0.695999 116.866 0.695999C117.314 0.695999 117.655 0.759999 117.89 0.887999C118.125 1.016 118.274 1.208 118.338 1.464C118.423 1.72 118.466 2.01867 118.466 2.36C118.466 2.70133 118.423 3 118.338 3.256C118.274 3.49067 118.125 3.672 117.89 3.8C117.655 3.928 117.303 3.992 116.834 3.992ZM123.83 23.288C123.425 23.288 123.116 23.224 122.902 23.096C122.71 22.9893 122.582 22.8293 122.518 22.616C122.476 22.4027 122.454 22.1467 122.454 21.848V9.144C122.454 8.86667 122.486 8.632 122.55 8.44C122.614 8.248 122.742 8.09867 122.934 7.992C123.148 7.88533 123.457 7.832 123.862 7.832C124.182 7.832 124.428 7.87467 124.598 7.96C124.79 8.024 124.918 8.12 124.982 8.248C125.068 8.376 125.121 8.51467 125.142 8.664C125.164 8.81333 125.174 8.952 125.174 9.08L125.11 10.552C125.324 10.1893 125.59 9.848 125.91 9.528C126.23 9.18667 126.604 8.888 127.03 8.632C127.457 8.35467 127.916 8.14133 128.406 7.992C128.918 7.84267 129.462 7.768 130.038 7.768C130.977 7.768 131.841 7.93867 132.63 8.28C133.42 8.6 134.092 9.08 134.646 9.72C135.222 10.3387 135.66 11.0853 135.958 11.96C136.278 12.8347 136.438 13.8267 136.438 14.936V21.88C136.438 22.1787 136.406 22.4347 136.342 22.648C136.3 22.8613 136.172 23.0213 135.958 23.128C135.766 23.2347 135.468 23.288 135.062 23.288C134.636 23.288 134.316 23.224 134.102 23.096C133.91 22.9893 133.782 22.8293 133.718 22.616C133.654 22.4027 133.622 22.1467 133.622 21.848V14.904C133.622 14.008 133.473 13.2293 133.174 12.568C132.876 11.9067 132.428 11.3947 131.83 11.032C131.233 10.648 130.476 10.456 129.558 10.456C128.684 10.456 127.916 10.648 127.254 11.032C126.614 11.3947 126.113 11.9067 125.75 12.568C125.409 13.2293 125.238 14.008 125.238 14.904V21.88C125.238 22.1787 125.206 22.4347 125.142 22.648C125.078 22.8613 124.94 23.0213 124.726 23.128C124.534 23.2347 124.236 23.288 123.83 23.288ZM146.763 29.592C146.016 29.592 145.301 29.5067 144.619 29.336C143.936 29.1653 143.339 28.9413 142.827 28.664C142.315 28.3867 141.909 28.088 141.611 27.768C141.312 27.448 141.163 27.1493 141.163 26.872C141.163 26.6587 141.195 26.4773 141.259 26.328C141.323 26.2 141.419 26.0613 141.547 25.912C141.76 25.6987 141.931 25.5493 142.059 25.464C142.187 25.3787 142.357 25.336 142.571 25.336C142.784 25.336 142.997 25.4213 143.211 25.592C143.424 25.784 143.68 25.9867 143.979 26.2C144.299 26.4347 144.683 26.6373 145.131 26.808C145.6 27 146.176 27.096 146.859 27.096C147.563 27.096 148.192 26.9893 148.747 26.776C149.301 26.5627 149.781 26.2427 150.187 25.816C150.592 25.3893 150.901 24.8667 151.115 24.248C151.328 23.6507 151.435 22.968 151.435 22.2L151.371 8.888C151.392 8.48267 151.509 8.19467 151.723 8.024C151.957 7.85333 152.32 7.768 152.811 7.768C153.216 7.768 153.504 7.832 153.675 7.96C153.867 8.06667 153.984 8.22667 154.027 8.44C154.091 8.632 154.123 8.87733 154.123 9.176V22.424C154.123 23.5547 153.941 24.5573 153.579 25.432C153.216 26.328 152.704 27.0853 152.043 27.704C151.381 28.3227 150.603 28.792 149.707 29.112C148.811 29.432 147.829 29.592 146.763 29.592ZM146.667 22.968C145.643 22.968 144.693 22.7867 143.819 22.424C142.965 22.04 142.208 21.5067 141.547 20.824C140.907 20.1413 140.405 19.3413 140.043 18.424C139.701 17.5067 139.531 16.504 139.531 15.416C139.531 14.328 139.701 13.3253 140.043 12.408C140.405 11.4907 140.907 10.6907 141.547 10.008C142.187 9.32533 142.933 8.80267 143.787 8.44C144.661 8.056 145.611 7.864 146.635 7.864C147.573 7.864 148.427 8.04533 149.195 8.408C149.963 8.77067 150.613 9.29333 151.147 9.976C151.701 10.6373 152.117 11.4267 152.395 12.344C152.672 13.2613 152.811 14.2853 152.811 15.416C152.811 16.952 152.565 18.2853 152.075 19.416C151.584 20.5467 150.88 21.4213 149.963 22.04C149.045 22.6587 147.947 22.968 146.667 22.968ZM146.827 20.344C147.68 20.344 148.448 20.1307 149.131 19.704C149.813 19.2773 150.357 18.6907 150.763 17.944C151.168 17.1973 151.371 16.3333 151.371 15.352C151.371 14.392 151.168 13.5493 150.763 12.824C150.357 12.0773 149.803 11.5013 149.099 11.096C148.416 10.6907 147.637 10.488 146.763 10.488C145.888 10.488 145.109 10.6907 144.427 11.096C143.744 11.5013 143.211 12.0773 142.827 12.824C142.464 13.5493 142.283 14.4027 142.283 15.384C142.283 16.3653 142.475 17.2293 142.859 17.976C143.243 18.7013 143.776 19.2773 144.459 19.704C145.141 20.1307 145.931 20.344 146.827 20.344Z" fill="white"/>
</g>
<path d="M0.592 23.128L0.0372996 23.9601L0.0570993 23.9732L0.0775044 23.9855L0.592 23.128ZM0.176 22.616L-0.788764 22.8791L-0.773716 22.9343L-0.752477 22.9874L0.176 22.616ZM0.656 1.176L1.10321 2.07043L1.11918 2.06244L1.13485 2.05389L0.656 1.176ZM3.184 1.56L4.00063 0.982834L3.96666 0.934776L3.92729 0.891035L3.184 1.56ZM15.216 18.584L14.3994 19.1612L16.216 21.7315V18.584H15.216ZM15.312 1.624L14.3982 1.21786L14.3786 1.26198L14.3633 1.30777L15.312 1.624ZM15.76 1.176L16.2072 2.07043L16.2416 2.05325L16.2745 2.03349L15.76 1.176ZM17.552 1.176L16.9973 2.00805L17.0171 2.02125L17.0375 2.03349L17.552 1.176ZM17.968 1.72L17.0032 1.98311L17.0183 2.03829L17.0395 2.09139L17.968 1.72ZM17.936 22.616L17.0256 22.2022L17.0161 22.2232L17.0075 22.2446L17.936 22.616ZM17.456 23.128L16.9771 22.2501L16.9591 22.2599L16.9415 22.2705L17.456 23.128ZM15.664 23.192L15.2926 24.1205L15.3073 24.1264L15.3223 24.1318L15.664 23.192ZM15.056 22.712L14.2429 23.2941L14.2616 23.3203L14.282 23.3452L15.056 22.712ZM2.96 5.816L3.77311 5.23389L1.96 2.70129V5.816H2.96ZM2.832 22.616L3.76048 22.9874L3.76637 22.9727L3.77179 22.9577L2.832 22.616ZM2.384 23.128L2.8985 23.9855H2.8985L2.384 23.128ZM1.456 22.32C1.33171 22.32 1.24368 22.3089 1.18493 22.2958C1.12689 22.2829 1.1057 22.27 1.1065 22.2705L0.0775044 23.9855C0.501685 24.24 0.989999 24.32 1.456 24.32V22.32ZM1.1467 22.2959C1.12224 22.2796 1.11434 22.2693 1.10448 22.2446L-0.752477 22.9874C-0.591668 23.3894 -0.322244 23.7204 0.0372996 23.9601L1.1467 22.2959ZM1.14076 22.3529C1.10475 22.2208 1.08 22.0452 1.08 21.816H-0.92C-0.92 22.1842 -0.88075 22.5418 -0.788764 22.8791L1.14076 22.3529ZM1.08 21.816V2.328H-0.92V21.816H1.08ZM1.08 2.328C1.08 2.14796 1.10838 2.06035 1.12181 2.03014L-0.705811 1.21786C-0.863049 1.57164 -0.92 1.95337 -0.92 2.328H1.08ZM1.12181 2.03014C1.11857 2.03743 1.11399 2.04587 1.10804 2.05453C1.1021 2.06318 1.09611 2.0701 1.09111 2.07511C1.08064 2.08557 1.08041 2.08183 1.10321 2.07043L0.208787 0.281571C-0.182316 0.477122 -0.513627 0.785445 -0.705811 1.21786L1.12181 2.03014ZM1.13485 2.05389C1.16598 2.03692 1.29871 1.984 1.616 1.984V-0.0160007C1.12262 -0.0160007 0.615354 0.059082 0.177149 0.298102L1.13485 2.05389ZM1.616 1.984C1.82364 1.984 1.97833 1.99362 2.08803 2.00778C2.2066 2.02308 2.23045 2.03852 2.20186 2.02581L3.01414 0.198188C2.61291 0.0198622 2.09431 -0.0160007 1.616 -0.0160007V1.984ZM2.20186 2.02581C2.22767 2.03728 2.31029 2.08406 2.44071 2.22896L3.92729 0.891035C3.67371 0.60927 3.37233 0.357383 3.01414 0.198188L2.20186 2.02581ZM2.36737 2.13717L14.3994 19.1612L16.0326 18.0068L4.00063 0.982834L2.36737 2.13717ZM16.216 18.584V2.328H14.216V18.584H16.216ZM16.216 2.328C16.216 2.12124 16.2407 2.00032 16.2607 1.94022L14.3633 1.30777C14.2553 1.63168 14.216 1.98009 14.216 2.328H16.216ZM16.2258 2.03014C16.2226 2.03743 16.218 2.04587 16.212 2.05453C16.2061 2.06318 16.2001 2.0701 16.1951 2.07511C16.1846 2.08557 16.1844 2.08183 16.2072 2.07043L15.3128 0.281571C14.9217 0.477122 14.5904 0.785445 14.3982 1.21786L16.2258 2.03014ZM16.2745 2.03349C16.2628 2.04052 16.2817 2.02634 16.3546 2.01126C16.427 1.99628 16.5353 1.984 16.688 1.984V-0.0160007C16.2039 -0.0160007 15.6833 0.0558023 15.2455 0.318505L16.2745 2.03349ZM16.688 1.984C16.8276 1.984 16.9199 1.99592 16.9751 2.00819C17.0306 2.02053 17.0282 2.02866 16.9973 2.00805L18.1067 0.343949C17.6741 0.0555162 17.1515 -0.0160007 16.688 -0.0160007V1.984ZM17.0375 2.03349C17.0424 2.03641 17.0418 2.03662 17.0379 2.03316C17.0338 2.0296 17.0279 2.02368 17.0216 2.01545C17.0153 2.0072 17.0104 1.99899 17.007 1.99197C17.0037 1.98507 17.0028 1.98159 17.0032 1.98311L18.9328 1.45689C18.7992 0.967201 18.4953 0.575799 18.0665 0.318504L17.0375 2.03349ZM17.0395 2.09139C17.0689 2.1649 17.096 2.28021 17.096 2.456H19.096C19.096 2.07712 19.0377 1.70176 18.8965 1.34861L17.0395 2.09139ZM17.096 2.456V21.848H19.096V2.456H17.096ZM17.096 21.848C17.096 21.9936 17.0688 22.1071 17.0256 22.2022L18.8464 23.0298C19.0165 22.6555 19.096 22.2571 19.096 21.848H17.096ZM17.0075 22.2446C17.0093 22.2402 17.0119 22.2349 17.0153 22.2296C17.0187 22.2243 17.0215 22.2211 17.0225 22.2201C17.0247 22.2176 17.0142 22.2299 16.9771 22.2501L17.9349 24.0059C18.3387 23.7856 18.679 23.4511 18.8645 22.9874L17.0075 22.2446ZM16.9415 22.2705C16.9532 22.2635 16.9343 22.2777 16.8614 22.2927C16.789 22.3077 16.6807 22.32 16.528 22.32V24.32C17.0121 24.32 17.5327 24.2482 17.9705 23.9855L16.9415 22.2705ZM16.528 22.32C16.2634 22.32 16.0988 22.2861 16.0057 22.2522L15.3223 24.1318C15.6985 24.2686 16.1099 24.32 16.528 24.32V22.32ZM16.0354 22.2635C16.0213 22.2579 15.948 22.223 15.83 22.0788L14.282 23.3452C14.548 23.6703 14.88 23.9554 15.2926 24.1205L16.0354 22.2635ZM15.8691 22.1299L3.77311 5.23389L2.14689 6.39811L14.2429 23.2941L15.8691 22.1299ZM1.96 5.816V21.848H3.96V5.816H1.96ZM1.96 21.848C1.96 22.0216 1.93355 22.1606 1.89221 22.2743L3.77179 22.9577C3.90112 22.6021 3.96 22.2291 3.96 21.848H1.96ZM1.90352 22.2446C1.90257 22.247 1.90222 22.2474 1.90272 22.2465C1.90323 22.2457 1.90365 22.2452 1.90342 22.2455C1.90315 22.2458 1.90115 22.2481 1.89629 22.2521C1.89136 22.2561 1.88285 22.2625 1.8695 22.2705L2.8985 23.9855C3.28276 23.7549 3.58712 23.4208 3.76048 22.9874L1.90352 22.2446ZM1.8695 22.2705C1.88122 22.2635 1.8623 22.2777 1.78939 22.2927C1.71701 22.3077 1.60867 22.32 1.456 22.32V24.32C1.94013 24.32 2.46066 24.2482 2.8985 23.9855L1.8695 22.2705ZM26.6723 22.904L26.2758 23.8221L26.2833 23.8252L26.6723 22.904ZM24.1443 21.24L23.4475 21.9573L23.4528 21.9625L23.4582 21.9676L24.1443 21.24ZM22.3522 12.504L23.2703 12.9004L23.2735 12.893L22.3522 12.504ZM24.0483 9.976L24.7554 10.6831H24.7554L24.0483 9.976ZM26.5443 8.28L26.9407 9.19811L26.9504 9.19381L26.5443 8.28ZM33.5843 8.696L33.0698 9.55349L33.0789 9.55897L33.0881 9.56424L33.5843 8.696ZM36.4323 11.512L37.2938 11.0043L36.4323 11.512ZM36.8483 18.776L37.7621 19.1822L37.7653 19.1747L36.8483 18.776ZM35.1203 21.272L35.8167 21.9896L35.1203 21.272ZM32.6243 22.936L33.0029 23.8615L33.0118 23.8579L33.0207 23.8541L32.6243 22.936ZM32.1123 20.056L31.6084 19.1922L32.1123 20.056ZM33.9683 18.2L33.1087 17.6889L33.9683 18.2ZM34.0003 12.856L33.1261 13.3416L33.1312 13.3508L33.1365 13.3599L34.0003 12.856ZM32.2083 11.064L32.6939 10.1898L32.2083 11.064ZM27.0243 11.096L26.5203 10.2322L26.5098 10.2385L27.0243 11.096ZM25.2003 12.92L24.347 12.3985L24.3416 12.4073L24.3365 12.4161L25.2003 12.92ZM25.2323 18.264L24.3727 18.7751L24.379 18.7854L25.2323 18.264ZM27.0882 20.088L26.5844 20.9518L26.5984 20.96L26.6127 20.9677L27.0882 20.088ZM29.6803 22.512C28.7681 22.512 27.8977 22.3359 27.0612 21.9827L26.2833 23.8252C27.3668 24.2827 28.5017 24.512 29.6803 24.512V22.512ZM27.0687 21.9859C26.2373 21.6269 25.4925 21.1369 24.8303 20.5124L23.4582 21.9676C24.2893 22.7512 25.2299 23.3704 26.2758 23.8221L27.0687 21.9859ZM24.841 20.5227C24.1868 19.8871 23.6734 19.1504 23.2981 18.3059L21.4704 19.1181C21.9484 20.1936 22.6084 21.1422 23.4475 21.9573L24.841 20.5227ZM23.2981 18.3059C22.9325 17.4833 22.7442 16.5776 22.7442 15.576H20.7442C20.7442 16.8358 20.9827 18.0207 21.4704 19.1181L23.2981 18.3059ZM22.7442 15.576C22.7442 14.5913 22.9235 13.7036 23.2703 12.9004L21.4342 12.1076C20.9703 13.1817 20.7442 14.342 20.7442 15.576H22.7442ZM23.2735 12.893C23.6295 12.0499 24.1227 11.3157 24.7554 10.6831L23.3411 9.26889C22.5231 10.0869 21.8857 11.0381 21.431 12.115L23.2735 12.893ZM24.7554 10.6831C25.3917 10.0468 26.1184 9.55316 26.9407 9.19806L26.1478 7.36194C25.0928 7.81751 24.1555 8.45455 23.3411 9.26889L24.7554 10.6831ZM26.9504 9.19381C27.7779 8.82601 28.6631 8.64 29.6162 8.64V6.64C28.3934 6.64 27.2306 6.88066 26.1381 7.36619L26.9504 9.19381ZM29.6162 8.64C30.9212 8.64 32.0636 8.94981 33.0698 9.55349L34.0987 7.83851C32.7582 7.03419 31.2553 6.64 29.6162 6.64V8.64ZM33.0881 9.56424C34.1305 10.1599 34.9543 10.9737 35.5707 12.0197L37.2938 11.0043C36.5022 9.66093 35.4274 8.59747 34.0804 7.82776L33.0881 9.56424ZM35.5707 12.0197C36.1771 13.0487 36.4883 14.215 36.4883 15.544H38.4883C38.4883 13.8863 38.0954 12.3646 37.2938 11.0043L35.5707 12.0197ZM36.4883 15.544C36.4883 16.5935 36.2981 17.5334 35.9312 18.3773L37.7653 19.1747C38.2518 18.0559 38.4883 16.8412 38.4883 15.544H36.4883ZM35.9344 18.3699C35.5576 19.2178 35.0538 19.9429 34.4238 20.5544L35.8167 21.9896C36.6373 21.1931 37.2856 20.2542 37.7621 19.1821L35.9344 18.3699ZM34.4238 20.5544C33.7865 21.173 33.0564 21.6601 32.2278 22.0179L33.0207 23.8541C34.0694 23.4012 35.0033 22.779 35.8167 21.9896L34.4238 20.5544ZM32.2456 22.0105C31.4283 22.3448 30.5757 22.512 29.6803 22.512V24.512C30.8328 24.512 31.9428 24.2952 33.0029 23.8615L32.2456 22.0105ZM29.6162 21.728C30.6879 21.728 31.6939 21.4577 32.6161 20.9198L31.6084 19.1922C30.9946 19.5503 30.3366 19.728 29.6162 19.728V21.728ZM32.6161 20.9198C33.5356 20.3834 34.2747 19.6413 34.8278 18.7111L33.1087 17.6889C32.7231 18.3374 32.2249 18.8326 31.6084 19.1922L32.6161 20.9198ZM34.8278 18.7111C35.3974 17.7531 35.6722 16.6775 35.6722 15.512H33.6722C33.6722 16.3518 33.4778 17.0682 33.1087 17.6889L34.8278 18.7111ZM35.6722 15.512C35.6722 14.3554 35.4122 13.2918 34.864 12.3521L33.1365 13.3599C33.4843 13.9562 33.6722 14.6633 33.6722 15.512H35.6722ZM34.8744 12.3704C34.3571 11.4391 33.6251 10.7072 32.6939 10.1898L31.7226 11.9382C32.3274 12.2741 32.7901 12.7369 33.1261 13.3416L34.8744 12.3704ZM32.6939 10.1898C31.7606 9.67133 30.7153 9.424 29.5843 9.424V11.424C30.4159 11.424 31.1199 11.6033 31.7226 11.9382L32.6939 10.1898ZM29.5843 9.424C28.4788 9.424 27.4499 9.68998 26.5204 10.2322L27.5281 11.9598C28.1346 11.606 28.8124 11.424 29.5843 11.424V9.424ZM26.5098 10.2385C25.62 10.7724 24.8975 11.4976 24.347 12.3985L26.0535 13.4415C26.4416 12.8064 26.9352 12.3156 27.5387 11.9535L26.5098 10.2385ZM24.3365 12.4161C23.7902 13.3526 23.5282 14.4045 23.5282 15.544H25.5282C25.5282 14.7209 25.7143 14.0234 26.064 13.4239L24.3365 12.4161ZM23.5282 15.544C23.5282 16.7267 23.8012 17.8138 24.3727 18.7751L26.0918 17.7529C25.7247 17.1355 25.5282 16.4093 25.5282 15.544H23.5282ZM24.379 18.7854C24.9335 19.6929 25.6715 20.4193 26.5844 20.9518L27.5921 19.2242C26.969 18.8607 26.4696 18.3711 26.0855 17.7425L24.379 18.7854ZM26.6127 20.9677C27.5479 21.4732 28.554 21.728 29.6162 21.728V19.728C28.8865 19.728 28.2073 19.5561 27.5638 19.2083L26.6127 20.9677ZM45.2738 23.224L44.8265 24.1184L44.8431 24.1267L44.8599 24.1344L45.2738 23.224ZM44.7298 22.648L43.8209 23.0652L43.8342 23.0941L43.8493 23.1221L44.7298 22.648ZM38.8097 9.752L37.9007 10.1687L37.9009 10.1692L38.8097 9.752ZM38.6497 8.6L39.5442 9.04721L39.5512 9.03324L39.5577 9.01906L38.6497 8.6ZM39.5457 7.832L39.0985 6.93757L39.5457 7.832ZM40.6338 7.64L40.359 8.60152L40.3913 8.61076L40.4242 8.6178L40.6338 7.64ZM41.4017 8.472L42.3239 8.08496L42.3188 8.07327L41.4017 8.472ZM46.1698 19.832L45.2477 20.219L46.166 22.4069L47.0907 20.2217L46.1698 19.832ZM50.8418 8.792L49.9396 8.36054L49.9297 8.38119L49.9208 8.40227L50.8418 8.792ZM51.6097 7.736L51 6.94337L51 6.94338L51.6097 7.736ZM52.9218 7.864L52.4745 8.75843L52.4812 8.76176L52.4879 8.765L52.9218 7.864ZM53.4977 9.944L52.594 9.5159L52.5909 9.52262L53.4977 9.944ZM47.6097 22.616L46.7029 22.1946L46.6944 22.2128L46.6867 22.2314L47.6097 22.616ZM46.1698 22.384C45.8957 22.384 45.7507 22.3423 45.6876 22.3136L44.8599 24.1344C45.2662 24.319 45.7185 24.384 46.1698 24.384V22.384ZM45.721 22.3296C45.7428 22.3405 45.6929 22.3274 45.6102 22.1739L43.8493 23.1221C44.0653 23.5233 44.378 23.8942 44.8265 24.1184L45.721 22.3296ZM45.6386 22.2308L39.7186 9.3348L37.9009 10.1692L43.8209 23.0652L45.6386 22.2308ZM39.7188 9.33534C39.6254 9.13163 39.5929 9.00508 39.5842 8.94243C39.5757 8.88121 39.5975 8.94059 39.5442 9.04721L37.7553 8.15279C37.4064 8.85067 37.6503 9.62237 37.9007 10.1687L39.7188 9.33534ZM39.5577 9.01906C39.5467 9.04284 39.5502 9.01958 39.6205 8.95926C39.6911 8.89876 39.8088 8.81853 39.993 8.72643L39.0985 6.93757C38.5581 7.2078 38.0124 7.59467 37.7418 8.18094L39.5577 9.01906ZM39.993 8.72643C40.3117 8.56705 40.4017 8.61372 40.359 8.60152L40.9085 6.67848C40.2685 6.49561 39.6331 6.67028 39.0985 6.93757L39.993 8.72643ZM40.4242 8.6178C40.3285 8.59728 40.2936 8.55111 40.3149 8.57428C40.3425 8.6041 40.4056 8.68876 40.4847 8.87073L42.3188 8.07327C42.0713 7.5039 41.6335 6.83153 40.8433 6.6622L40.4242 8.6178ZM40.4797 8.85901L45.2477 20.219L47.0918 19.445L42.3238 8.08499L40.4797 8.85901ZM47.0907 20.2217L51.7627 9.18173L49.9208 8.40227L45.2488 19.4423L47.0907 20.2217ZM51.7439 9.22345C51.9447 8.80348 52.1168 8.60761 52.2195 8.52862L51 6.94338C50.5481 7.29105 50.2081 7.79918 49.9396 8.36054L51.7439 9.22345ZM52.2195 8.52862C52.1715 8.56551 52.1208 8.58692 52.08 8.59665C52.0428 8.60554 52.0286 8.60132 52.0487 8.60327C52.0992 8.6082 52.2343 8.63832 52.4745 8.75843L53.369 6.96957C52.741 6.65561 51.7836 6.34067 51 6.94337L52.2195 8.52862ZM52.4879 8.765C52.7103 8.87207 52.8011 8.95276 52.8265 8.98096C52.8357 8.99128 52.8241 8.98119 52.8104 8.9487C52.7956 8.91373 52.7858 8.86976 52.7858 8.824H54.7858C54.7858 7.84488 54.0019 7.27421 53.3556 6.963L52.4879 8.765ZM52.7858 8.824C52.7858 8.97842 52.7417 9.20417 52.594 9.51591L54.4015 10.3721C54.6378 9.87317 54.7858 9.35225 54.7858 8.824H52.7858ZM52.5909 9.52262L46.7029 22.1946L48.5166 23.0374L54.4046 10.3654L52.5909 9.52262ZM46.6867 22.2314C46.664 22.2857 46.6457 22.2995 46.6189 22.3141L47.5766 24.0699C48.0192 23.8285 48.3421 23.4583 48.5328 23.0006L46.6867 22.2314ZM46.6189 22.3141C46.5813 22.3346 46.4549 22.384 46.1698 22.384V24.384C46.6526 24.384 47.1449 24.3054 47.5766 24.0699L46.6189 22.3141ZM67.5198 23L66.8126 23.7071L66.8312 23.7257L66.8508 23.7433L67.5198 23ZM67.1677 22.104L66.1709 22.0243L66.1636 22.1166L66.1732 22.2087L67.1677 22.104ZM67.2958 20.504L68.2926 20.5837L66.4478 19.974L67.2958 20.504ZM66.3037 21.688L66.9934 22.4121L67.0022 22.4037L67.0109 22.3951L66.3037 21.688ZM64.5437 22.84L64.9474 23.7549L64.9585 23.75L64.9696 23.7448L64.5437 22.84ZM59.0078 22.712L58.5873 23.6193L58.5956 23.6231L59.0078 22.712ZM56.6717 21.016L55.9328 21.6898L55.9381 21.6956L55.9436 21.7014L56.6717 21.016ZM55.1037 18.52L54.171 18.8804L54.1745 18.8896L54.1782 18.8986L55.1037 18.52ZM55.1037 12.568L54.1781 12.1893L54.1738 12.2003L55.1037 12.568ZM56.7038 10.104L55.9859 9.40785L56.7038 10.104ZM59.0397 8.44L58.6276 7.52885L58.6193 7.53269L59.0397 8.44ZM64.2878 8.216L63.9268 9.14857L63.94 9.15369L63.9533 9.15843L64.2878 8.216ZM65.9837 9.176L65.3301 9.93282L65.3484 9.94861L65.3674 9.9635L65.9837 9.176ZM67.2637 10.488L66.4596 11.0824L68.4195 13.734L68.2626 10.4404L67.2637 10.488ZM67.1998 9.144L66.2008 9.18941L66.2009 9.19156L67.1998 9.144ZM67.4877 8.152L68.1567 8.8953L68.1604 8.89194L67.4877 8.152ZM69.4398 8.024L68.8398 8.824L68.862 8.84065L68.885 8.85605L69.4398 8.024ZM69.8238 8.568L70.7885 8.30488V8.30488L69.8238 8.568ZM69.8238 22.584L70.7885 22.8471V22.8471L69.8238 22.584ZM69.4398 23.096L68.9541 22.2218L68.9187 22.2415L68.885 22.264L69.4398 23.096ZM64.7038 19.96L64.1782 19.1091L64.1669 19.1163L64.7038 19.96ZM66.3997 18.168L65.5256 17.6823L65.5209 17.6909L66.3997 18.168ZM66.3678 12.92L65.4936 13.4056L65.5017 13.4202L65.5103 13.4345L66.3678 12.92ZM64.6397 11.128L64.1029 11.9717L64.1176 11.9811L64.1327 11.9899L64.6397 11.128ZM59.6797 11.16L60.2053 12.0108L60.2119 12.0066L59.6797 11.16ZM57.9518 12.984L57.0776 12.4984L57.9518 12.984ZM57.9518 18.2L57.0775 18.6857L57.0835 18.6961L57.9518 18.2ZM59.7118 19.992L59.1973 20.8495L59.2115 20.8581L59.2261 20.8662L59.7118 19.992ZM68.5437 22.288C68.373 22.288 68.2659 22.2701 68.2065 22.2533C68.1496 22.2373 68.1576 22.2287 68.1887 22.2567L66.8508 23.7433C67.3338 24.178 67.9747 24.288 68.5437 24.288V22.288ZM68.2269 22.2929C68.2441 22.3102 68.2359 22.3106 68.2185 22.2663C68.2002 22.2197 68.1766 22.1354 68.1623 21.9993L66.1732 22.2087C66.2284 22.7323 66.395 23.2895 66.8126 23.7071L68.2269 22.2929ZM68.1646 22.1837L68.2926 20.5837L66.2989 20.4243L66.1709 22.0243L68.1646 22.1837ZM66.4478 19.974C66.2906 20.2255 66.0179 20.5596 65.5966 20.9809L67.0109 22.3951C67.4856 21.9204 67.8743 21.4652 68.1437 21.034L66.4478 19.974ZM65.6141 20.9639C65.2629 21.2984 64.7733 21.6268 64.118 21.9352L64.9696 23.7448C65.7648 23.3706 66.4486 22.931 66.9934 22.4121L65.6141 20.9639ZM64.1401 21.9251C63.5756 22.1741 62.8362 22.32 61.8877 22.32V24.32C63.0299 24.32 64.0613 24.1459 64.9474 23.7549L64.1401 21.9251ZM61.8877 22.32C60.9999 22.32 60.181 22.1452 59.4199 21.8009L58.5956 23.6231C59.6265 24.0895 60.7276 24.32 61.8877 24.32V22.32ZM59.4282 21.8047C58.6732 21.4548 57.9981 20.9662 57.3999 20.3306L55.9436 21.7014C56.7107 22.5165 57.593 23.1585 58.5873 23.6193L59.4282 21.8047ZM57.4107 20.3422C56.831 19.7065 56.3704 18.9751 56.0293 18.1414L54.1782 18.8986C54.6051 19.9422 55.1898 20.8749 55.9328 21.6898L57.4107 20.3422ZM56.0365 18.1596C55.7209 17.3427 55.5597 16.4629 55.5597 15.512H53.5597C53.5597 16.6944 53.7612 17.82 54.171 18.8804L56.0365 18.1596ZM55.5597 15.512C55.5597 14.5849 55.72 13.7291 56.0337 12.9357L54.1738 12.2003C53.7621 13.2416 53.5597 14.3484 53.5597 15.512H55.5597ZM56.0293 12.9466C56.3667 12.122 56.8309 11.4094 57.4216 10.8001L55.9859 9.40785C55.2113 10.2066 54.6088 11.1367 54.1782 12.1894L56.0293 12.9466ZM57.4216 10.8001C58.0205 10.1826 58.6987 9.70019 59.4602 9.34731L58.6193 7.53269C57.6314 7.99048 56.7524 8.61737 55.9859 9.40785L57.4216 10.8001ZM59.4519 9.35111C60.2158 9.00553 61.0244 8.832 61.8877 8.832V6.832C60.7458 6.832 59.6557 7.0638 58.6276 7.52889L59.4519 9.35111ZM61.8877 8.832C62.7407 8.832 63.4112 8.94898 63.9268 9.14857L64.6487 7.28343C63.8417 6.97101 62.9121 6.832 61.8877 6.832V8.832ZM63.9533 9.15843C64.513 9.357 64.9663 9.6186 65.3301 9.93282L66.6374 8.41918C66.0625 7.92273 65.3852 7.54433 64.6222 7.27357L63.9533 9.15843ZM65.3674 9.9635C65.7886 10.2931 66.1517 10.6658 66.4596 11.0824L68.0679 9.89361C67.6505 9.32886 67.1603 8.82691 66.6001 8.38849L65.3674 9.9635ZM68.2626 10.4404L68.1986 9.09643L66.2009 9.19156L66.2649 10.5356L68.2626 10.4404ZM68.1987 9.09859C68.1913 8.9363 68.2075 8.85237 68.2161 8.82281C68.2226 8.80042 68.214 8.84373 68.1567 8.89529L66.8188 7.4087C66.2735 7.89945 66.1744 8.60835 66.2008 9.18941L68.1987 9.09859ZM68.1604 8.89194C68.1329 8.91699 68.2029 8.832 68.5758 8.832V6.832C67.9673 6.832 67.312 6.96034 66.8151 7.41206L68.1604 8.89194ZM68.5758 8.832C68.7305 8.832 68.8269 8.84465 68.8788 8.85619C68.9339 8.86842 68.9029 8.87136 68.8398 8.824L70.0397 7.224C69.5982 6.89283 69.0304 6.832 68.5758 6.832V8.832ZM68.885 8.85605C68.8848 8.85589 68.8816 8.85367 68.8767 8.84899C68.8718 8.84426 68.867 8.83863 68.8628 8.83268C68.8586 8.82678 68.8565 8.82249 68.8558 8.82106C68.8552 8.81976 68.8567 8.82265 68.859 8.83112L70.7885 8.30488C70.6647 7.85101 70.3989 7.46156 69.9945 7.19195L68.885 8.85605ZM68.859 8.83111C68.8923 8.95332 68.9198 9.14679 68.9198 9.432H70.9198C70.9198 9.03454 70.8832 8.65201 70.7885 8.30488L68.859 8.83111ZM68.9198 9.432V21.784H70.9198V9.432H68.9198ZM68.9198 21.784C68.9198 22.0132 68.895 22.1888 68.859 22.3209L70.7885 22.8471C70.8805 22.5098 70.9198 22.1522 70.9198 21.784H68.9198ZM68.859 22.3209C68.8556 22.3334 68.8582 22.3167 68.8798 22.288C68.9026 22.2575 68.9309 22.2347 68.9541 22.2218L69.9254 23.9702C70.3793 23.718 70.662 23.311 70.7885 22.8471L68.859 22.3209ZM68.885 22.264C68.9218 22.2394 68.926 22.2485 68.8622 22.2622C68.7999 22.2756 68.6973 22.288 68.5437 22.288V24.288C69.0153 24.288 69.5553 24.2208 69.9945 23.9281L68.885 22.264ZM62.3678 21.632C63.4067 21.632 64.3724 21.3562 65.2406 20.8037L64.1669 19.1163C63.6271 19.4598 63.0354 19.632 62.3678 19.632V21.632ZM65.2292 20.8108C66.1024 20.2715 66.7898 19.5456 67.2786 18.6451L65.5209 17.6909C65.1991 18.2838 64.7558 18.7525 64.1783 19.1092L65.2292 20.8108ZM67.2739 18.6536C67.7924 17.7203 68.0397 16.675 68.0397 15.544H66.0397C66.0397 16.3757 65.8604 17.0797 65.5256 17.6824L67.2739 18.6536ZM68.0397 15.544C68.0397 14.388 67.7799 13.3299 67.2252 12.4055L65.5103 13.4345C65.8516 14.0034 66.0397 14.6947 66.0397 15.544H68.0397ZM67.2419 12.4344C66.7326 11.5176 66.0328 10.7872 65.1468 10.2661L64.1327 11.9899C64.6974 12.3221 65.1496 12.7864 65.4936 13.4056L67.2419 12.4344ZM65.1766 10.2843C64.3084 9.73182 63.3427 9.456 62.3037 9.456V11.456C62.9715 11.456 63.5631 11.6282 64.1029 11.9717L65.1766 10.2843ZM62.3037 9.456C61.1392 9.456 60.0747 9.73063 59.1476 10.3134L60.2119 12.0066C60.7782 11.6507 61.4629 11.456 62.3037 11.456V9.456ZM59.1543 10.3092C58.2788 10.8499 57.5847 11.5856 57.0776 12.4984L58.8259 13.4696C59.1721 12.8464 59.63 12.3661 60.2052 12.0108L59.1543 10.3092ZM57.0776 12.4984C56.5591 13.4317 56.3117 14.477 56.3117 15.608H58.3117C58.3117 14.7763 58.4911 14.0723 58.8259 13.4696L57.0776 12.4984ZM56.3117 15.608C56.3117 16.7218 56.5609 17.7556 57.0776 18.6856L58.8259 17.7144C58.4893 17.1084 58.3117 16.4142 58.3117 15.608H56.3117ZM57.0835 18.6961C57.5963 19.5935 58.3056 20.3145 59.1973 20.8495L60.2262 19.1345C59.6246 18.7735 59.1605 18.2998 58.82 17.7039L57.0835 18.6961ZM59.2261 20.8662C60.1626 21.3864 61.2195 21.632 62.3678 21.632V19.632C61.5107 19.632 60.7969 19.4509 60.1974 19.1178L59.2261 20.8662ZM82.1158 23.096L82.6892 22.2768L82.6799 22.2703L82.6704 22.264L82.1158 23.096ZM81.7318 22.52L80.7574 22.7449L80.7594 22.7537L80.7616 22.7625L81.7318 22.52ZM81.7318 1.784L80.7831 1.46777L80.7743 1.4941L80.767 1.52088L81.7318 1.784ZM82.1478 1.208L82.7025 2.04005L82.7119 2.03375L82.7212 2.02723L82.1478 1.208ZM95.1077 1.784L94.5962 2.64334L94.6051 2.64851L95.1077 1.784ZM97.9877 6.968L96.9879 6.94839L96.9874 6.97742L96.9885 7.00643L97.9877 6.968ZM97.7958 8.6L98.7587 8.86963V8.86963L97.7958 8.6ZM97.1237 10.104L96.28 9.56708L96.2735 9.57764L97.1237 10.104ZM96.0677 11.224L95.4943 10.4048L94.261 11.2681L95.5349 12.0702L96.0677 11.224ZM97.5397 12.632L96.7219 13.2075L97.5397 12.632ZM98.4678 14.552L97.5107 14.842L98.4678 14.552ZM98.7878 16.76L99.7875 16.7832L99.7878 16.7716V16.76H98.7878ZM98.2757 19.352L99.2025 19.7277L99.2059 19.7192L98.2757 19.352ZM96.8997 21.432L97.6069 22.1391L96.8997 21.432ZM94.8197 22.84L95.1955 23.7667L95.2061 23.7624L95.2167 23.7579L94.8197 22.84ZM84.5157 20.568H83.5157V21.568H84.5157V20.568ZM94.1158 20.088L93.6435 19.2065L94.1158 20.088ZM95.6517 14.552L94.7414 14.9658L95.6517 14.552ZM94.7878 13.496L94.2111 14.313L94.2276 14.3246L94.2445 14.3356L94.7878 13.496ZM93.6038 12.952L93.3492 13.9191L93.3612 13.9221L93.6038 12.952ZM92.3877 12.792L92.3323 13.7905L92.36 13.792H92.3877V12.792ZM88.4518 10.456L87.7828 9.71271L87.7632 9.7303L87.7446 9.74889L88.4518 10.456ZM92.5157 10.136L92.5657 11.1348L92.5157 10.136ZM93.7637 9.88L93.4334 8.93614L93.4257 8.93884L93.418 8.94166L93.7637 9.88ZM94.7878 9.048L93.9492 8.50296L93.9423 8.51401L94.7878 9.048ZM94.2438 4.632L93.5748 5.37529L93.5817 5.38156L93.5888 5.38769L94.2438 4.632ZM84.5157 3.768V2.768H83.5157V3.768H84.5157ZM83.0117 22.32C82.7405 22.32 82.672 22.2647 82.6892 22.2768L81.5423 23.9152C81.9862 24.226 82.515 24.32 83.0117 24.32V22.32ZM82.6704 22.264C82.6762 22.2678 82.6834 22.2734 82.6909 22.2809C82.6983 22.2884 82.704 22.2956 82.7078 22.3013C82.7158 22.3133 82.71 22.31 82.7019 22.2775L80.7616 22.7625C80.8767 23.2228 81.1323 23.6422 81.5611 23.9281L82.6704 22.264ZM82.7061 22.2951C82.6611 22.1 82.6357 21.8775 82.6357 21.624H80.6357C80.6357 22.0105 80.6744 22.3853 80.7574 22.7449L82.7061 22.2951ZM82.6357 21.624V2.616H80.6357V21.624H82.6357ZM82.6357 2.616C82.6357 2.35866 82.6619 2.17396 82.6965 2.04712L80.767 1.52088C80.6736 1.86337 80.6357 2.23334 80.6357 2.616H82.6357ZM82.6804 2.10023C82.6954 2.05529 82.7081 2.03671 82.7104 2.03349C82.7117 2.03176 82.7113 2.03252 82.7092 2.0346C82.707 2.03671 82.7045 2.03866 82.7025 2.04005L81.593 0.37595C81.1858 0.647427 80.9263 1.03802 80.7831 1.46777L82.6804 2.10023ZM82.7212 2.02723C82.704 2.0393 82.7725 1.984 83.0437 1.984V-0.0160007C82.547 -0.0160007 82.0182 0.0780296 81.5743 0.388765L82.7212 2.02723ZM83.0437 1.984H91.9717V-0.0160007H83.0437V1.984ZM91.9717 1.984C93.0131 1.984 93.8764 2.21482 94.5963 2.64329L95.6192 0.924706C94.5471 0.286515 93.3198 -0.0160007 91.9717 -0.0160007V1.984ZM94.6051 2.64851C95.369 3.09261 95.9549 3.68837 96.3786 4.44736L98.1249 3.47263C97.5246 2.39696 96.6812 1.54206 95.6104 0.919492L94.6051 2.64851ZM96.3786 4.44736C96.801 5.20422 97.0059 6.03098 96.9879 6.94839L98.9876 6.9876C99.0122 5.72902 98.7265 4.55045 98.1249 3.47263L96.3786 4.44736ZM96.9885 7.00643C97.0058 7.45738 96.954 7.89744 96.8328 8.33037L98.7587 8.86963C98.9362 8.23589 99.0123 7.58795 98.987 6.92957L96.9885 7.00643ZM96.8328 8.33037C96.71 8.76883 96.5263 9.18017 96.2801 9.56712L97.9674 10.6409C98.3185 10.0892 98.5828 9.49784 98.7587 8.86963L96.8328 8.33037ZM96.2735 9.57764C96.0667 9.91163 95.8084 10.1849 95.4943 10.4048L96.6412 12.0432C97.1804 11.6658 97.6261 11.1924 97.974 10.6304L96.2735 9.57764ZM95.5349 12.0702C95.9951 12.3599 96.3901 12.7359 96.7219 13.2075L98.3576 12.0565C97.8788 11.3761 97.2924 10.8134 96.6006 10.3778L95.5349 12.0702ZM96.7219 13.2075C97.0633 13.6925 97.3269 14.2354 97.5107 14.842L99.4248 14.262C99.1819 13.4606 98.8269 12.7235 98.3576 12.0565L96.7219 13.2075ZM97.5107 14.842C97.6943 15.4479 97.7878 16.0859 97.7878 16.76H99.7878C99.7878 15.8981 99.6678 15.0641 99.4248 14.262L97.5107 14.842ZM97.788 16.7367C97.7693 17.5425 97.6201 18.2895 97.3456 18.9848L99.2059 19.7192C99.5714 18.7932 99.7635 17.8121 99.7875 16.7832L97.788 16.7367ZM97.349 18.9763C97.0789 19.6426 96.6945 20.223 96.1926 20.7249L97.6069 22.1391C98.2996 21.4463 98.8326 20.64 99.2025 19.7277L97.349 18.9763ZM96.1926 20.7249C95.6861 21.2314 95.0985 21.6299 94.4228 21.9221L95.2167 23.7579C96.1196 23.3674 96.9187 22.8273 97.6069 22.1391L96.1926 20.7249ZM94.444 21.9133C93.7802 22.1824 93.0658 22.32 92.2917 22.32V24.32C93.3097 24.32 94.2806 24.1376 95.1955 23.7667L94.444 21.9133ZM92.2917 22.32H83.0117V24.32H92.2917V22.32ZM84.5157 21.568H91.9717V19.568H84.5157V21.568ZM91.9717 21.568C92.9314 21.568 93.8159 21.3831 94.588 20.9695L93.6435 19.2065C93.2209 19.4329 92.676 19.568 91.9717 19.568V21.568ZM94.588 20.9695C95.3686 20.5513 95.9699 19.9323 96.38 19.1394L94.6035 18.2206C94.3736 18.6651 94.0575 18.9847 93.6435 19.2065L94.588 20.9695ZM96.38 19.1394C96.7914 18.3439 96.9717 17.4195 96.9717 16.408H94.9717C94.9717 17.1885 94.8321 17.7787 94.6035 18.2206L96.38 19.1394ZM96.9717 16.408C96.9717 15.561 96.8562 14.7852 96.5621 14.1382L94.7414 14.9658C94.874 15.2575 94.9717 15.719 94.9717 16.408H96.9717ZM96.5621 14.1382C96.2851 13.5289 95.883 13.0136 95.331 12.6564L94.2445 14.3356C94.4178 14.4477 94.5917 14.6365 94.7414 14.9658L96.5621 14.1382ZM95.3644 12.679C94.9018 12.3524 94.394 12.1188 93.8463 11.9819L93.3612 13.9221C93.6668 13.9986 93.9484 14.1276 94.2111 14.313L95.3644 12.679ZM93.8582 11.9849C93.3727 11.8571 92.8819 11.792 92.3877 11.792V13.792C92.7043 13.792 93.0241 13.8335 93.3493 13.9191L93.8582 11.9849ZM92.4432 11.7935C92.0443 11.7714 91.6735 11.76 91.3317 11.76V13.76C91.63 13.76 91.9632 13.77 92.3323 13.7905L92.4432 11.7935ZM91.3317 11.76H89.3798V13.76H91.3317V11.76ZM89.3798 11.76C89.2455 11.76 89.1771 11.7427 89.1537 11.7346C89.1366 11.7287 89.1626 11.7349 89.195 11.771L87.7085 13.109C88.1666 13.618 88.8087 13.76 89.3798 13.76V11.76ZM89.195 11.771C89.2231 11.8022 89.2144 11.8102 89.1984 11.7533C89.1817 11.6939 89.1637 11.5868 89.1637 11.416H87.1637C87.1637 11.985 87.2738 12.626 87.7085 13.109L89.195 11.771ZM89.1637 11.416C89.1637 11.2584 89.1812 11.1686 89.1936 11.1273C89.2048 11.0898 89.2039 11.1181 89.1589 11.1631L87.7446 9.74889C87.2746 10.219 87.1637 10.8665 87.1637 11.416H89.1637ZM89.1207 11.1993C89.0787 11.2371 89.1147 11.168 89.4118 11.168V9.168C88.8554 9.168 88.2515 9.29089 87.7828 9.71271L89.1207 11.1993ZM89.4118 11.168H91.3638V9.168H89.4118V11.168ZM91.3638 11.168C91.7253 11.168 92.1263 11.1567 92.5657 11.1348L92.4658 9.13725C92.0519 9.15795 91.6849 9.168 91.3638 9.168V11.168ZM92.5657 11.1348C93.0946 11.1083 93.6102 11.0023 94.1095 10.8183L93.418 8.94166C93.1066 9.0564 92.7903 9.12103 92.4658 9.13725L92.5657 11.1348ZM94.0941 10.8239C94.7473 10.5953 95.2645 10.1658 95.6332 9.58199L93.9423 8.51401C93.799 8.7409 93.6336 8.86608 93.4334 8.93614L94.0941 10.8239ZM95.6262 9.59299C96.0499 8.94119 96.2038 8.12549 96.2038 7.256H94.2038C94.2038 7.92251 94.0803 8.30147 93.9493 8.50301L95.6262 9.59299ZM96.2038 7.256C96.2038 5.89465 95.8364 4.68903 94.8987 3.87631L93.5888 5.38769C93.9311 5.6843 94.2038 6.22802 94.2038 7.256H96.2038ZM94.9127 3.88871C93.9968 3.06439 92.6333 2.768 91.0758 2.768V4.768C92.4622 4.768 93.2107 5.04761 93.5748 5.37529L94.9127 3.88871ZM91.0758 2.768H84.5157V4.768H91.0758V2.768ZM83.5157 3.768V20.568H85.5157V3.768H83.5157ZM102.746 23.128L103.26 22.2705L103.246 22.2619L103.232 22.2538L102.746 23.128ZM102.362 22.648L101.378 22.8269L101.388 22.8818L101.404 22.9353L102.362 22.648ZM102.394 8.44L103.352 8.72735V8.72735L102.394 8.44ZM102.778 7.992L103.184 8.90581L103.225 8.88775L103.264 8.86616L102.778 7.992ZM104.57 7.992L104.084 8.86616L104.14 8.89694L104.199 8.92048L104.57 7.992ZM104.986 8.408L104.037 8.72423L104.06 8.79165L104.092 8.85521L104.986 8.408ZM105.114 9.016L106.105 9.14816L106.114 9.08237V9.016H105.114ZM104.986 9.976L103.995 9.84384L105.866 10.4501L104.986 9.976ZM105.498 9.144L104.705 8.53429L104.69 8.55417L104.676 8.57479L105.498 9.144ZM106.266 8.408L106.847 9.2218L106.857 9.21441L106.266 8.408ZM107.386 7.832L107.07 6.88332L107.063 6.88568L107.056 6.88814L107.386 7.832ZM109.914 7.704L109.689 8.67839L109.731 8.68794L109.773 8.69395L109.914 7.704ZM110.746 7.928L110.361 8.85108L110.374 8.85639L110.387 8.86135L110.746 7.928ZM111.45 8.312L110.836 9.10135L110.865 9.12378L110.895 9.14405L111.45 8.312ZM111.898 8.76L111.05 9.29L111.09 9.35373L111.139 9.41079L111.898 8.76ZM111.642 10.52L112.373 11.2023L112.384 11.1906L112.395 11.1785L111.642 10.52ZM110.106 10.904L109.551 11.736L109.603 11.7706L109.659 11.7984L110.106 10.904ZM109.722 10.648L109.097 11.4289L109.131 11.456L109.167 11.4801L109.722 10.648ZM109.242 10.424L108.871 11.3525L108.912 11.369L108.955 11.3818L109.242 10.424ZM107.194 10.488L106.861 9.54501L106.852 9.54825L106.843 9.55167L107.194 10.488ZM106.202 11.064L106.793 11.8704L106.81 11.858L106.827 11.8449L106.202 11.064ZM105.402 11.992L104.528 11.5064L104.517 11.5254L104.508 11.5448L105.402 11.992ZM105.018 22.68L104.06 22.3927L105.018 22.68ZM104.602 23.16L104.155 22.2656L104.135 22.2753L104.116 22.2858L104.602 23.16ZM103.674 22.32C103.521 22.32 103.413 22.3077 103.341 22.2927C103.268 22.2777 103.249 22.2635 103.26 22.2705L102.232 23.9855C102.669 24.2482 103.19 24.32 103.674 24.32V22.32ZM103.232 22.2538C103.241 22.2591 103.264 22.2746 103.287 22.3033C103.31 22.3318 103.318 22.3553 103.32 22.3607L101.404 22.9353C101.542 23.3944 101.837 23.7669 102.26 24.0022L103.232 22.2538ZM103.346 22.4691C103.316 22.306 103.298 22.1009 103.298 21.848H101.298C101.298 22.1924 101.322 22.5206 101.378 22.8269L103.346 22.4691ZM103.298 21.848V9.24H101.298V21.848H103.298ZM103.298 9.24C103.298 8.97871 103.325 8.81656 103.352 8.72735L101.436 8.15265C101.335 8.49011 101.298 8.86129 101.298 9.24H103.298ZM103.352 8.72735C103.349 8.73667 103.335 8.77432 103.297 8.81879C103.258 8.86455 103.214 8.89233 103.184 8.90581L102.372 7.07819C101.896 7.28979 101.578 7.67915 101.436 8.15265L103.352 8.72735ZM103.264 8.86616C103.229 8.88535 103.237 8.87253 103.324 8.85746C103.407 8.8432 103.531 8.832 103.706 8.832V6.832C103.242 6.832 102.717 6.88216 102.292 7.11784L103.264 8.86616ZM103.706 8.832C103.855 8.832 103.959 8.84255 104.028 8.85528C104.099 8.86839 104.109 8.87961 104.084 8.86616L105.056 7.11784C104.642 6.88797 104.15 6.832 103.706 6.832V8.832ZM104.199 8.92048C104.201 8.92137 104.168 8.90853 104.127 8.86711C104.083 8.82309 104.053 8.77063 104.037 8.72423L105.935 8.09177C105.764 7.58106 105.386 7.24156 104.941 7.06352L104.199 8.92048ZM104.092 8.85521C104.093 8.85875 104.114 8.90154 104.114 9.016H106.114C106.114 8.66113 106.049 8.29858 105.88 7.96079L104.092 8.85521ZM104.123 8.88384L103.995 9.84384L105.977 10.1082L106.105 9.14816L104.123 8.88384ZM105.866 10.4501C105.997 10.2077 106.148 9.96208 106.32 9.71321L104.676 8.57479C104.464 8.88058 104.274 9.18959 104.106 9.5019L105.866 10.4501ZM106.291 9.75371C106.441 9.55817 106.625 9.38065 106.847 9.22173L105.685 7.59427C105.31 7.86201 104.982 8.17516 104.705 8.53429L106.291 9.75371ZM106.857 9.21441C107.087 9.04569 107.37 8.89699 107.716 8.77586L107.056 6.88814C106.548 7.06568 106.085 7.30098 105.675 7.60159L106.857 9.21441ZM107.702 8.78068C108.019 8.675 108.45 8.608 109.018 8.608V6.608C108.306 6.608 107.649 6.69033 107.07 6.88332L107.702 8.78068ZM109.018 8.608C109.272 8.608 109.494 8.63336 109.689 8.67839L110.139 6.72961C109.779 6.64664 109.404 6.608 109.018 6.608V8.608ZM109.773 8.69395C109.995 8.72572 110.19 8.77958 110.361 8.85108L111.131 7.00492C110.79 6.86308 110.43 6.76762 110.055 6.71405L109.773 8.69395ZM110.387 8.86135C110.592 8.94028 110.736 9.02387 110.836 9.10135L112.064 7.52265C111.78 7.30146 111.454 7.12905 111.105 6.99465L110.387 8.86135ZM110.895 9.14405C110.986 9.20482 111.029 9.25611 111.05 9.29L112.746 8.23C112.554 7.92255 112.298 7.67518 112.005 7.47995L110.895 9.14405ZM111.139 9.41079C111.124 9.3939 111.109 9.36926 111.099 9.34082C111.089 9.31354 111.09 9.29837 111.09 9.304H113.09C113.09 8.87374 112.954 8.45567 112.657 8.10921L111.139 9.41079ZM111.09 9.304C111.09 9.54034 111.023 9.70928 110.889 9.86149L112.395 11.1785C112.859 10.6481 113.09 10.0063 113.09 9.304H111.09ZM110.911 9.83768C110.821 9.93459 110.757 9.9759 110.727 9.99178C110.701 10.005 110.7 10 110.714 10V12C111.402 12 111.957 11.6478 112.373 11.2023L110.911 9.83768ZM110.714 10C110.611 10 110.545 9.99383 110.51 9.98824C110.493 9.98559 110.489 9.98398 110.495 9.98565C110.5 9.98723 110.522 9.99378 110.553 10.0096L109.659 11.7984C110.003 11.9706 110.401 12 110.714 12V10ZM110.661 10.0719C110.533 9.98661 110.405 9.90128 110.277 9.81595L109.167 11.4801C109.295 11.5654 109.423 11.6507 109.551 11.736L110.661 10.0719ZM110.347 9.86713C110.097 9.66705 109.798 9.5467 109.529 9.46617L108.955 11.3818C109.026 11.4033 109.073 11.4218 109.099 11.4342C109.127 11.4471 109.121 11.4478 109.097 11.4289L110.347 9.86713ZM109.613 9.49552C109.213 9.33542 108.71 9.296 108.218 9.296V11.296C108.425 11.296 108.584 11.3056 108.702 11.3203C108.825 11.3357 108.872 11.3531 108.871 11.3525L109.613 9.49552ZM108.218 9.296C107.764 9.296 107.31 9.38667 106.861 9.54501L107.527 11.431C107.804 11.3333 108.032 11.296 108.218 11.296V9.296ZM106.843 9.55167C106.391 9.72101 105.97 9.96928 105.577 10.2831L106.827 11.8449C107.074 11.6467 107.314 11.511 107.545 11.4243L106.843 9.55167ZM105.611 10.2576C105.162 10.5863 104.804 11.0099 104.528 11.5064L106.276 12.4776C106.427 12.2061 106.602 12.011 106.793 11.8704L105.611 10.2576ZM104.508 11.5448C104.234 12.0919 104.114 12.6984 104.114 13.336H106.114C106.114 12.9496 106.186 12.6601 106.296 12.4392L104.508 11.5448ZM104.114 13.336V21.912H106.114V13.336H104.114ZM104.114 21.912C104.114 22.1442 104.089 22.2981 104.06 22.3927L105.976 22.9673C106.075 22.6352 106.114 22.2771 106.114 21.912H104.114ZM104.06 22.3927C104.067 22.3711 104.082 22.3375 104.11 22.3051C104.137 22.2739 104.159 22.2636 104.155 22.2656L105.049 24.0544C105.49 23.8342 105.827 23.465 105.976 22.9673L104.06 22.3927ZM104.116 22.2858C104.151 22.2666 104.143 22.2795 104.056 22.2945C103.973 22.3088 103.849 22.32 103.674 22.32V24.32C104.138 24.32 104.663 24.2698 105.088 24.0342L104.116 22.2858ZM115.906 23.128L116.42 22.2705L116.406 22.2619L116.392 22.2538L115.906 23.128ZM115.522 22.648L116.48 22.3607L115.522 22.648ZM115.906 7.992L115.459 7.09757L115.439 7.10729L115.42 7.11784L115.906 7.992ZM117.762 8.024L117.207 8.85605L117.241 8.8785L117.276 8.89816L117.762 8.024ZM118.146 8.504L119.104 8.21665L118.146 8.504ZM118.146 22.68L119.104 22.9673V22.9673L118.146 22.68ZM117.73 23.16L117.283 22.2656L117.263 22.2753L117.244 22.2858L117.73 23.16ZM115.778 3.8L115.241 4.64366L115.27 4.66176L115.299 4.6779L115.778 3.8ZM115.298 3.192L114.328 3.43453L114.337 3.47179L114.349 3.50823L115.298 3.192ZM115.33 1.432L116.27 1.77374L116.274 1.76104L116.279 1.74823L115.33 1.432ZM115.81 0.887999L116.224 1.79837L116.257 1.78331L116.289 1.76589L115.81 0.887999ZM117.89 0.887999L118.369 0.0101023L117.89 0.887999ZM118.338 1.464L117.368 1.70653L117.377 1.74379L117.389 1.78023L118.338 1.464ZM118.338 3.256L117.389 2.93977L117.381 2.9661L117.373 2.99288L118.338 3.256ZM117.89 3.8L118.369 4.6779L117.89 3.8ZM116.834 22.32C116.681 22.32 116.573 22.3077 116.501 22.2927C116.428 22.2777 116.409 22.2635 116.42 22.2705L115.392 23.9855C115.829 24.2482 116.35 24.32 116.834 24.32V22.32ZM116.392 22.2538C116.401 22.2591 116.424 22.2746 116.447 22.3033C116.47 22.3318 116.478 22.3553 116.48 22.3607L114.564 22.9353C114.702 23.3944 114.997 23.7669 115.42 24.0022L116.392 22.2538ZM116.48 22.3607C116.451 22.2661 116.426 22.1122 116.426 21.88H114.426C114.426 22.2451 114.465 22.6032 114.564 22.9353L116.48 22.3607ZM116.426 21.88V9.24H114.426V21.88H116.426ZM116.426 9.24C116.426 9.00776 116.451 8.85388 116.48 8.75935L114.564 8.18465C114.465 8.51678 114.426 8.87491 114.426 9.24H116.426ZM116.48 8.75935C116.478 8.76469 116.47 8.78823 116.447 8.81669C116.424 8.84539 116.401 8.86092 116.392 8.86616L115.42 7.11784C114.997 7.35307 114.702 7.72557 114.564 8.18465L116.48 8.75935ZM116.353 8.88643C116.345 8.89045 116.376 8.87414 116.47 8.85839C116.562 8.84309 116.692 8.832 116.866 8.832V6.832C116.388 6.832 115.881 6.88642 115.459 7.09757L116.353 8.88643ZM116.866 8.832C117.02 8.832 117.122 8.84445 117.184 8.8578C117.248 8.87148 117.244 8.88055 117.207 8.85605L118.317 7.19195C117.878 6.89921 117.338 6.832 116.866 6.832V8.832ZM117.276 8.89816C117.267 8.89292 117.244 8.87739 117.221 8.84869C117.198 8.82022 117.19 8.79669 117.188 8.79135L119.104 8.21665C118.966 7.75758 118.671 7.38507 118.248 7.14984L117.276 8.89816ZM117.188 8.79135C117.215 8.88056 117.242 9.04271 117.242 9.304H119.242C119.242 8.92529 119.205 8.55411 119.104 8.21665L117.188 8.79135ZM117.242 9.304V21.912H119.242V9.304H117.242ZM117.242 21.912C117.242 22.1442 117.217 22.2981 117.188 22.3927L119.104 22.9673C119.203 22.6352 119.242 22.2771 119.242 21.912H117.242ZM117.188 22.3927C117.195 22.3711 117.21 22.3375 117.238 22.3051C117.265 22.2739 117.287 22.2636 117.283 22.2656L118.177 24.0544C118.618 23.8342 118.955 23.465 119.104 22.9673L117.188 22.3927ZM117.244 22.2858C117.274 22.2695 117.265 22.2815 117.186 22.2956C117.11 22.3091 116.996 22.32 116.834 22.32V24.32C117.288 24.32 117.796 24.2671 118.216 24.0342L117.244 22.2858ZM116.834 2.992C116.642 2.992 116.499 2.97868 116.397 2.96013C116.293 2.94118 116.255 2.92101 116.257 2.9221L115.299 4.6779C115.753 4.92569 116.306 4.992 116.834 4.992V2.992ZM116.315 2.95634C116.268 2.92619 116.257 2.90672 116.247 2.87577L114.349 3.50823C114.51 3.98928 114.819 4.37514 115.241 4.64366L116.315 2.95634ZM116.268 2.94946C116.229 2.792 116.202 2.57809 116.202 2.296H114.202C114.202 2.69658 114.239 3.08 114.328 3.43453L116.268 2.94946ZM116.202 2.296C116.202 2.03139 116.236 1.86683 116.27 1.77374L114.39 1.09026C114.253 1.46651 114.202 1.87794 114.202 2.296H116.202ZM116.279 1.74823C116.284 1.73277 116.282 1.74461 116.264 1.76562C116.255 1.77524 116.246 1.78346 116.237 1.78979C116.229 1.796 116.224 1.79844 116.224 1.79837L115.396 -0.022368C114.895 0.205303 114.55 0.609902 114.381 1.11577L116.279 1.74823ZM116.289 1.76589C116.287 1.76698 116.325 1.74682 116.429 1.72787C116.531 1.70932 116.674 1.696 116.866 1.696V-0.304001C116.338 -0.304001 115.785 -0.237689 115.331 0.0101023L116.289 1.76589ZM116.866 1.696C117.045 1.696 117.178 1.70899 117.274 1.72687C117.321 1.73566 117.355 1.74494 117.378 1.75268C117.389 1.7565 117.398 1.75977 117.403 1.76214C117.406 1.76332 117.408 1.76426 117.409 1.76491C117.411 1.76556 117.411 1.7659 117.411 1.76589L118.369 0.0101023C117.919 -0.235028 117.382 -0.304001 116.866 -0.304001V1.696ZM117.411 1.76589C117.417 1.76883 117.415 1.76873 117.41 1.76422C117.404 1.75956 117.397 1.75211 117.389 1.74194C117.381 1.73175 117.375 1.72188 117.371 1.71393C117.367 1.70619 117.367 1.70301 117.368 1.70653L119.308 1.22146C119.175 0.690347 118.845 0.269953 118.369 0.0101023L117.411 1.76589ZM117.389 1.78023C117.433 1.91136 117.466 2.09902 117.466 2.36H119.466C119.466 1.93832 119.414 1.52864 119.287 1.14777L117.389 1.78023ZM117.466 2.36C117.466 2.62098 117.433 2.80863 117.389 2.93977L119.287 3.57223C119.414 3.19136 119.466 2.78168 119.466 2.36H117.466ZM117.373 2.99288C117.375 2.98743 117.378 2.97776 117.384 2.96568C117.39 2.95351 117.398 2.94208 117.406 2.93229C117.423 2.91156 117.432 2.91096 117.411 2.9221L118.369 4.6779C118.816 4.43386 119.16 4.04368 119.303 3.51912L117.373 2.99288ZM117.411 2.9221C117.413 2.92101 117.375 2.94118 117.271 2.96013C117.169 2.97868 117.026 2.992 116.834 2.992V4.992C117.362 4.992 117.915 4.92569 118.369 4.6779L117.411 2.9221ZM122.902 23.096L123.417 22.2385L123.402 22.2299L123.388 22.2218L122.902 23.096ZM122.518 22.616L121.538 22.8121L121.547 22.8583L121.56 22.9033L122.518 22.616ZM122.934 7.992L122.487 7.09757L122.468 7.10729L122.449 7.11784L122.934 7.992ZM124.598 7.96L124.151 8.85443L124.215 8.88621L124.282 8.90868L124.598 7.96ZM124.982 8.248L124.088 8.69522L124.116 8.7509L124.15 8.8027L124.982 8.248ZM125.174 9.08L126.173 9.12344L126.174 9.10173V9.08H125.174ZM125.11 10.552L124.111 10.5086L125.972 11.059L125.11 10.552ZM125.91 9.528L126.617 10.2351L126.629 10.2237L126.64 10.2119L125.91 9.528ZM127.03 8.632L127.545 9.48949L127.56 9.48024L127.575 9.47044L127.03 8.632ZM128.406 7.992L128.126 7.03193L128.115 7.03533L128.406 7.992ZM132.63 8.28L132.233 9.19786L132.244 9.20242L132.255 9.20674L132.63 8.28ZM134.646 9.72L133.891 10.3749L133.902 10.3884L133.914 10.4014L134.646 9.72ZM135.958 11.96L135.012 12.2831L135.015 12.2934L135.019 12.3036L135.958 11.96ZM136.342 22.648L135.384 22.3607L135.371 22.4057L135.362 22.4519L136.342 22.648ZM135.958 23.128L135.511 22.2336L135.492 22.2433L135.473 22.2538L135.958 23.128ZM134.102 23.096L134.617 22.2385L134.602 22.2299L134.588 22.2218L134.102 23.096ZM133.718 22.616L132.76 22.9033V22.9033L133.718 22.616ZM133.174 12.568L132.263 12.9796V12.9796L133.174 12.568ZM131.83 11.032L131.289 11.8732L131.3 11.8801L131.311 11.8868L131.83 11.032ZM127.254 11.032L127.747 11.9021L127.756 11.8968L127.254 11.032ZM125.75 12.568L124.873 12.0872L124.867 12.0982L124.862 12.1094L125.75 12.568ZM125.142 22.648L124.184 22.3607V22.3607L125.142 22.648ZM124.726 23.128L124.279 22.2336L124.26 22.2433L124.241 22.2538L124.726 23.128ZM123.83 22.288C123.678 22.288 123.569 22.2757 123.497 22.2607C123.424 22.2457 123.405 22.2315 123.417 22.2385L122.388 23.9535C122.826 24.2162 123.346 24.288 123.83 24.288V22.288ZM123.388 22.2218C123.397 22.2271 123.42 22.2426 123.443 22.2713C123.466 22.2998 123.474 22.3233 123.476 22.3287L121.56 22.9033C121.698 23.3624 121.993 23.7349 122.417 23.9702L123.388 22.2218ZM123.499 22.4199C123.473 22.29 123.454 22.1033 123.454 21.848H121.454C121.454 22.19 121.478 22.5154 121.538 22.8121L123.499 22.4199ZM123.454 21.848V9.144H121.454V21.848H123.454ZM123.454 9.144C123.454 8.93724 123.479 8.81632 123.499 8.75623L121.602 8.12377C121.494 8.44768 121.454 8.79609 121.454 9.144H123.454ZM123.499 8.75623C123.491 8.77932 123.476 8.80837 123.454 8.83479C123.432 8.86012 123.416 8.86855 123.42 8.86616L122.449 7.11784C122.058 7.33474 121.752 7.67328 121.602 8.12377L123.499 8.75623ZM123.381 8.88643C123.378 8.88814 123.409 8.87243 123.496 8.85746C123.581 8.84278 123.701 8.832 123.862 8.832V6.832C123.396 6.832 122.904 6.88891 122.487 7.09757L123.381 8.88643ZM123.862 8.832C123.98 8.832 124.062 8.84003 124.115 8.84921C124.169 8.85865 124.175 8.86621 124.151 8.85443L125.045 7.06557C124.672 6.87891 124.246 6.832 123.862 6.832V8.832ZM124.282 8.90868C124.328 8.92394 124.184 8.8881 124.088 8.69522L125.877 7.80078C125.652 7.3519 125.253 7.12406 124.914 7.01132L124.282 8.90868ZM124.15 8.8027C124.153 8.80756 124.154 8.80882 124.153 8.80698C124.152 8.80508 124.152 8.80402 124.152 8.80542L126.132 8.52258C126.089 8.22243 125.981 7.943 125.814 7.6933L124.15 8.8027ZM124.152 8.80542C124.168 8.91593 124.174 9.00678 124.174 9.08H126.174C126.174 8.89721 126.159 8.71073 126.132 8.52258L124.152 8.80542ZM124.175 9.03656L124.111 10.5086L126.109 10.5954L126.173 9.12344L124.175 9.03656ZM125.972 11.059C126.139 10.7746 126.353 10.4997 126.617 10.2351L125.203 8.82089C124.828 9.19627 124.508 9.60405 124.248 10.045L125.972 11.059ZM126.64 10.2119C126.893 9.94228 127.192 9.70089 127.545 9.48949L126.516 7.77451C126.015 8.07511 125.568 8.43105 125.181 8.84406L126.64 10.2119ZM127.575 9.47044C127.923 9.24463 128.296 9.07091 128.697 8.94867L128.115 7.03533C127.535 7.21175 126.991 7.4647 126.485 7.79356L127.575 9.47044ZM128.686 8.952C129.1 8.83123 129.549 8.768 130.038 8.768V6.768C129.375 6.768 128.736 6.8541 128.126 7.032L128.686 8.952ZM130.038 8.768C130.853 8.768 131.58 8.9155 132.233 9.19786L133.027 7.36214C132.101 6.96184 131.101 6.768 130.038 6.768V8.768ZM132.255 9.20674C132.898 9.46776 133.44 9.85497 133.891 10.3749L135.402 9.06507C134.743 8.30503 133.941 7.73224 133.006 7.35326L132.255 9.20674ZM133.914 10.4014C134.386 10.9078 134.754 11.5291 135.012 12.2831L136.905 11.6369C136.565 10.6416 136.059 9.76954 135.378 9.03858L133.914 10.4014ZM135.019 12.3036C135.292 13.0494 135.438 13.922 135.438 14.936H137.438C137.438 13.7313 137.265 12.6199 136.897 11.6164L135.019 12.3036ZM135.438 14.936V21.88H137.438V14.936H135.438ZM135.438 21.88C135.438 22.1122 135.413 22.2661 135.384 22.3607L137.3 22.9354C137.4 22.6032 137.438 22.2451 137.438 21.88H135.438ZM135.362 22.4519C135.37 22.4117 135.391 22.3558 135.433 22.3033C135.473 22.2532 135.509 22.2344 135.511 22.2336L136.405 24.0224C136.864 23.793 137.213 23.392 137.323 22.8441L135.362 22.4519ZM135.473 22.2538C135.502 22.2375 135.493 22.2495 135.414 22.2636C135.339 22.2771 135.224 22.288 135.062 22.288V24.288C135.516 24.288 136.025 24.2351 136.444 24.0022L135.473 22.2538ZM135.062 22.288C134.896 22.288 134.778 22.2753 134.698 22.2594C134.618 22.2433 134.6 22.2284 134.617 22.2385L133.588 23.9535C134.031 24.2197 134.568 24.288 135.062 24.288V22.288ZM134.588 22.2218C134.597 22.2271 134.62 22.2426 134.643 22.2713C134.666 22.2998 134.674 22.3233 134.676 22.3286L132.76 22.9033C132.898 23.3624 133.193 23.7349 133.617 23.9702L134.588 22.2218ZM134.676 22.3287C134.648 22.2341 134.622 22.0802 134.622 21.848H132.622C132.622 22.2131 132.661 22.5712 132.76 22.9033L134.676 22.3287ZM134.622 21.848V14.904H132.622V21.848H134.622ZM134.622 14.904C134.622 13.8985 134.455 12.9737 134.086 12.1564L132.263 12.9796C132.491 13.4849 132.622 14.1175 132.622 14.904H134.622ZM134.086 12.1564C133.707 11.3186 133.126 10.6488 132.349 10.1772L131.311 11.8868C131.729 12.1405 132.044 12.4947 132.263 12.9796L134.086 12.1564ZM132.371 10.1908C131.571 9.67683 130.612 9.456 129.558 9.456V11.456C130.339 11.456 130.894 11.6192 131.289 11.8732L132.371 10.1908ZM129.558 9.456C128.533 9.456 127.587 9.68255 126.752 10.1672L127.756 11.8968C128.244 11.6134 128.834 11.456 129.558 11.456V9.456ZM126.761 10.162C125.955 10.6186 125.323 11.2673 124.873 12.0872L126.627 13.0488C126.903 12.546 127.273 12.1707 127.747 11.902L126.761 10.162ZM124.862 12.1094C124.434 12.9386 124.238 13.8807 124.238 14.904H126.238C126.238 14.1353 126.384 13.52 126.639 13.0266L124.862 12.1094ZM124.238 14.904V21.88H126.238V14.904H124.238ZM124.238 21.88C124.238 22.1122 124.213 22.2661 124.184 22.3607L126.1 22.9353C126.2 22.6032 126.238 22.2451 126.238 21.88H124.238ZM124.184 22.3607C124.191 22.3391 124.206 22.3055 124.235 22.2731C124.262 22.2419 124.283 22.2316 124.279 22.2336L125.173 24.0224C125.614 23.8022 125.951 23.433 126.1 22.9353L124.184 22.3607ZM124.241 22.2538C124.27 22.2375 124.261 22.2495 124.182 22.2636C124.107 22.2771 123.992 22.288 123.83 22.288V24.288C124.284 24.288 124.793 24.2351 125.212 24.0022L124.241 22.2538ZM144.619 29.336L144.376 30.3061L144.619 29.336ZM142.827 28.664L143.303 27.7847V27.7847L142.827 28.664ZM141.259 26.328L140.364 25.8808L140.351 25.9071L140.34 25.9341L141.259 26.328ZM141.547 25.912L140.84 25.2049L140.812 25.232L140.787 25.2612L141.547 25.912ZM142.059 25.464L142.613 26.2961L142.059 25.464ZM143.211 25.592L143.88 24.8487L143.858 24.8293L143.835 24.8111L143.211 25.592ZM143.979 26.2L144.57 25.3935L144.56 25.3863L143.979 26.2ZM145.131 26.808L145.509 25.8825L145.498 25.8778L145.487 25.8735L145.131 26.808ZM148.747 26.776L149.106 27.7093L148.747 26.776ZM150.187 25.816L150.912 26.5047L150.187 25.816ZM151.115 24.248L150.173 23.9116L150.169 23.922L151.115 24.248ZM151.435 22.2H152.435L152.435 22.1952L151.435 22.2ZM151.371 8.888L150.372 8.83544L150.371 8.8641L150.371 8.89281L151.371 8.888ZM151.723 8.024L151.135 7.21526L151.116 7.22878L151.098 7.24313L151.723 8.024ZM153.675 7.96L153.075 8.76L153.129 8.80098L153.189 8.83416L153.675 7.96ZM154.027 8.44L153.046 8.63612L153.058 8.69716L153.078 8.75623L154.027 8.44ZM153.579 25.432L152.655 25.049L152.652 25.0568L153.579 25.432ZM152.043 27.704L151.36 26.9737L152.043 27.704ZM149.707 29.112L150.043 30.0537L149.707 29.112ZM143.819 22.424L143.408 23.3359L143.422 23.342L143.436 23.3477L143.819 22.424ZM141.547 20.824L140.817 21.5079L140.823 21.5139L140.829 21.5198L141.547 20.824ZM140.043 18.424L139.106 18.7727L139.109 18.7822L139.113 18.7917L140.043 18.424ZM140.043 12.408L139.113 12.0403L139.109 12.0498L139.106 12.0593L140.043 12.408ZM143.787 8.44L144.178 9.3604L144.189 9.35564L143.787 8.44ZM149.195 8.408L149.622 7.50375L149.622 7.50375L149.195 8.408ZM151.147 9.976L150.359 10.5916L150.369 10.6053L150.381 10.6186L151.147 9.976ZM152.395 12.344L151.438 12.6334L152.395 12.344ZM152.075 19.416L152.992 19.8141L152.075 19.416ZM149.963 22.04L150.522 22.8691L149.963 22.04ZM149.131 19.704L148.601 18.856L149.131 19.704ZM150.763 17.944L149.884 17.4669L150.763 17.944ZM150.763 12.824L149.884 13.3011L149.89 13.3118L150.763 12.824ZM149.099 11.096L148.588 11.9559L148.6 11.9626L149.099 11.096ZM144.427 11.096L144.937 11.9559L144.427 11.096ZM142.827 12.824L141.937 12.3666L141.932 12.3768L142.827 12.824ZM142.859 17.976L141.969 18.4334L141.975 18.4439L142.859 17.976ZM144.459 19.704L144.989 18.856L144.459 19.704ZM146.763 28.592C146.093 28.592 145.46 28.5155 144.861 28.3659L144.376 30.3061C145.143 30.4978 145.939 30.592 146.763 30.592V28.592ZM144.861 28.3659C144.244 28.2115 143.728 28.0148 143.303 27.7847L142.35 29.5433C142.95 29.8679 143.628 30.1192 144.376 30.3061L144.861 28.3659ZM143.303 27.7847C142.857 27.5429 142.547 27.3055 142.342 27.0857L140.88 28.4503C141.272 28.8705 141.773 29.2304 142.35 29.5433L143.303 27.7847ZM142.342 27.0857C142.239 26.9754 142.19 26.8985 142.169 26.8568C142.15 26.8183 142.163 26.8269 142.163 26.872H140.163C140.163 27.5147 140.504 28.0477 140.88 28.4503L142.342 27.0857ZM142.163 26.872C142.163 26.7537 142.181 26.7144 142.178 26.7219L140.34 25.9341C140.208 26.2403 140.163 26.5636 140.163 26.872H142.163ZM142.153 26.7752C142.17 26.7418 142.213 26.6714 142.306 26.5628L140.787 25.2612C140.625 25.4513 140.476 25.6582 140.364 25.8808L142.153 26.7752ZM142.254 26.6191C142.456 26.417 142.57 26.3249 142.613 26.2961L141.504 24.632C141.291 24.7738 141.064 24.9804 140.84 25.2049L142.254 26.6191ZM142.613 26.2961C142.569 26.3254 142.535 26.3356 142.525 26.3381C142.517 26.3403 142.529 26.336 142.571 26.336V24.336C142.234 24.336 141.849 24.4023 141.504 24.632L142.613 26.2961ZM142.571 26.336C142.557 26.336 142.545 26.3346 142.535 26.3326C142.525 26.3306 142.52 26.3286 142.519 26.3285C142.519 26.3285 142.525 26.3307 142.536 26.3375C142.548 26.3443 142.564 26.3555 142.586 26.3729L143.835 24.8111C143.495 24.539 143.068 24.336 142.571 24.336V26.336ZM142.542 26.3353C142.789 26.5582 143.076 26.7843 143.398 27.0137L144.56 25.3863C144.284 25.1891 144.059 25.0098 143.88 24.8487L142.542 26.3353ZM143.387 27.0064C143.793 27.3038 144.26 27.5463 144.775 27.7425L145.487 25.8735C145.106 25.7284 144.805 25.5655 144.57 25.3936L143.387 27.0064ZM144.752 27.7335C145.375 27.9885 146.089 28.096 146.859 28.096V26.096C146.264 26.096 145.825 26.0115 145.509 25.8825L144.752 27.7335ZM146.859 28.096C147.663 28.096 148.417 27.9741 149.106 27.7093L148.388 25.8427C147.967 26.0046 147.462 26.096 146.859 26.096V28.096ZM149.106 27.7093C149.798 27.4432 150.403 27.0402 150.912 26.5047L149.462 25.1273C149.16 25.4451 148.805 25.6821 148.388 25.8427L149.106 27.7093ZM150.912 26.5047C151.426 25.9632 151.805 25.3127 152.06 24.574L150.169 23.922C149.997 24.4206 149.758 24.8154 149.462 25.1273L150.912 26.5047ZM152.056 24.5843C152.316 23.859 152.435 23.0592 152.435 22.2H150.435C150.435 22.8768 150.341 23.4423 150.173 23.9117L152.056 24.5843ZM152.435 22.1952L152.371 8.88319L150.371 8.89281L150.435 22.2048L152.435 22.1952ZM152.369 8.94056C152.376 8.81728 152.395 8.75975 152.401 8.7453C152.403 8.73954 152.401 8.74572 152.392 8.7588C152.382 8.7724 152.367 8.78898 152.347 8.80487L151.098 7.24313C150.572 7.66404 150.401 8.28498 150.372 8.83544L152.369 8.94056ZM152.311 8.83274C152.295 8.84443 152.313 8.82591 152.4 8.80542C152.487 8.78496 152.62 8.768 152.811 8.768V6.768C152.24 6.768 151.622 6.86047 151.135 7.21526L152.311 8.83274ZM152.811 8.768C152.965 8.768 153.062 8.78065 153.114 8.79219C153.169 8.80442 153.138 8.80736 153.075 8.76L154.275 7.16C153.833 6.82883 153.265 6.768 152.811 6.768V8.768ZM153.189 8.83416C153.173 8.82501 153.136 8.79957 153.1 8.75136C153.065 8.70292 153.051 8.65837 153.046 8.63612L155.007 8.24388C154.906 7.73971 154.606 7.33341 154.16 7.08584L153.189 8.83416ZM153.078 8.75623C153.096 8.81016 153.123 8.93867 153.123 9.176H155.123C155.123 8.816 155.085 8.45384 154.975 8.12377L153.078 8.75623ZM153.123 9.176V22.424H155.123V9.176H153.123ZM153.123 22.424C153.123 23.4482 152.959 24.3169 152.655 25.049L154.502 25.815C154.924 24.7978 155.123 23.6611 155.123 22.424H153.123ZM152.652 25.0568C152.34 25.8274 151.908 26.4609 151.36 26.9737L152.726 28.4343C153.5 27.7098 154.092 26.8286 154.506 25.8072L152.652 25.0568ZM151.36 26.9737C150.803 27.4942 150.144 27.8939 149.37 28.1703L150.043 30.0537C151.061 29.6901 151.96 29.1511 152.726 28.4343L151.36 26.9737ZM149.37 28.1703C148.595 28.4473 147.729 28.592 146.763 28.592V30.592C147.93 30.592 149.027 30.4167 150.043 30.0537L149.37 28.1703ZM146.667 21.968C145.763 21.968 144.945 21.8086 144.202 21.5003L143.436 23.3477C144.441 23.7647 145.522 23.968 146.667 23.968V21.968ZM144.229 21.5121C143.493 21.1808 142.84 20.7215 142.265 20.1282L140.829 21.5198C141.576 22.2919 142.438 22.8992 143.408 23.3359L144.229 21.5121ZM142.276 20.1401C141.727 19.5542 141.292 18.863 140.973 18.0563L139.113 18.7917C139.519 19.8197 140.086 20.7285 140.817 21.5079L142.276 20.1401ZM140.98 18.0753C140.685 17.2813 140.531 16.3982 140.531 15.416H138.531C138.531 16.6098 138.718 17.7321 139.106 18.7727L140.98 18.0753ZM140.531 15.416C140.531 14.4338 140.685 13.5507 140.98 12.7567L139.106 12.0593C138.718 13.0999 138.531 14.2222 138.531 15.416H140.531ZM140.973 12.7757C141.292 11.969 141.727 11.2778 142.276 10.6919L140.817 9.32406C140.086 10.1035 139.519 11.0123 139.113 12.0403L140.973 12.7757ZM142.276 10.6919C142.822 10.1098 143.454 9.66808 144.178 9.36033L143.396 7.51967C142.413 7.93725 141.551 8.54088 140.817 9.32406L142.276 10.6919ZM144.189 9.35564C144.928 9.0312 145.739 8.864 146.635 8.864V6.864C145.482 6.864 144.395 7.0808 143.385 7.52436L144.189 9.35564ZM146.635 8.864C147.441 8.864 148.147 9.01901 148.768 9.31225L149.622 7.50375C148.707 7.07166 147.705 6.864 146.635 6.864V8.864ZM148.768 9.31225C149.392 9.60686 149.92 10.0295 150.359 10.5916L151.935 9.36036C151.307 8.55717 150.534 7.93448 149.622 7.50375L148.768 9.31225ZM150.381 10.6186C150.839 11.1655 151.195 11.8312 151.438 12.6334L153.352 12.0546C153.04 11.0222 152.564 10.1092 151.913 9.33339L150.381 10.6186ZM151.438 12.6334C151.682 13.4418 151.811 14.3663 151.811 15.416H153.811C153.811 14.2044 153.662 13.0809 153.352 12.0546L151.438 12.6334ZM151.811 15.416C151.811 16.8477 151.582 18.0397 151.157 19.0179L152.992 19.8141C153.549 18.5309 153.811 17.0563 153.811 15.416H151.811ZM151.157 19.0179C150.734 19.9943 150.145 20.7107 149.404 21.2109L150.522 22.8691C151.615 22.1319 152.434 21.099 152.992 19.8141L151.157 19.0179ZM149.404 21.2109C148.676 21.7015 147.78 21.968 146.667 21.968V23.968C148.114 23.968 149.415 23.6158 150.522 22.8691L149.404 21.2109ZM146.827 21.344C147.856 21.344 148.809 21.084 149.661 20.552L148.601 18.856C148.087 19.1773 147.504 19.344 146.827 19.344V21.344ZM149.661 20.552C150.498 20.0288 151.159 19.3107 151.642 18.4211L149.884 17.4669C149.556 18.0706 149.129 18.5259 148.601 18.856L149.661 20.552ZM151.642 18.4211C152.138 17.5067 152.371 16.4739 152.371 15.352H150.371C150.371 16.1927 150.198 16.888 149.884 17.4669L151.642 18.4211ZM152.371 15.352C152.371 14.248 152.137 13.2324 151.636 12.3362L149.89 13.3118C150.2 13.8663 150.371 14.536 150.371 15.352H152.371ZM151.642 12.3469C151.152 11.4456 150.469 10.7313 149.598 10.2294L148.6 11.9626C149.136 12.2714 149.563 12.7091 149.884 13.3011L151.642 12.3469ZM149.609 10.2361C148.757 9.72993 147.798 9.488 146.763 9.488V11.488C147.477 11.488 148.075 11.6514 148.588 11.9559L149.609 10.2361ZM146.763 9.488C145.727 9.488 144.769 9.72993 143.916 10.2361L144.937 11.9559C145.45 11.6514 146.049 11.488 146.763 11.488V9.488ZM143.916 10.2361C143.063 10.743 142.402 11.463 141.937 12.3667L143.716 13.2813C144.019 12.6917 144.426 12.2596 144.937 11.9559L143.916 10.2361ZM141.932 12.3768C141.487 13.2672 141.283 14.2796 141.283 15.384H143.283C143.283 14.5257 143.441 13.8315 143.721 13.2712L141.932 12.3768ZM141.283 15.384C141.283 16.4976 141.501 17.5231 141.969 18.4333L143.748 17.5187C143.448 16.9355 143.283 16.2331 143.283 15.384H141.283ZM141.975 18.4439C142.44 19.3217 143.094 20.0301 143.929 20.552L144.989 18.856C144.458 18.5246 144.046 18.081 143.743 17.5081L141.975 18.4439ZM143.929 20.552C144.788 21.089 145.765 21.344 146.827 21.344V19.344C146.096 19.344 145.495 19.1724 144.989 18.856L143.929 20.552Z" fill="white" mask="url(#path-1-outside-1_391_96)"/>
<defs>
<filter id="filter0_i_391_96" x="0.0800781" y="0.696045" width="154.043" height="31.896" filterUnits="userSpaceOnUse" color-interpolation-filters="sRGB">
<feFlood flood-opacity="0" result="BackgroundImageFix"/>
<feBlend mode="normal" in="SourceGraphic" in2="BackgroundImageFix" result="shape"/>
<feColorMatrix in="SourceAlpha" type="matrix" values="0 0 0 0 0 0 0 0 0 0 0 0 0 0 0 0 0 0 127 0" result="hardAlpha"/>
<feOffset dy="4"/>
<feGaussianBlur stdDeviation="1.5"/>
<feComposite in2="hardAlpha" operator="arithmetic" k2="-1" k3="1"/>
<feColorMatrix type="matrix" values="0 0 0 0 0 0 0 0 0 0 0 0 0 0 0 0 0 0 0.26 0"/>
<feBlend mode="normal" in2="shape" result="effect1_innerShadow_391_96"/>
</filter>
</defs>
</svg>
